<svg xmlns="http://www.w3.org/2000/svg" viewBox="0 0 250 250"><defs><style>.cls-1{fill:#fff;}.cls-2{fill:#27b1a5;}</style></defs><title>_logo-inobra-1</title><g id="_logo-inobra-1"><rect class="cls-1" width="250" height="250"/><rect class="cls-2" x="57.54" y="110.13" width="23.9" height="44.99"/><path class="cls-1" d="M44.58,110.2H57.52l23.7,27.47h.13V110.2H94.28v44.92H81.34l-23.7-27.52h-.13v27.52H44.58Z"/><polygon class="cls-2" points="12.83 156.43 24.79 161.74 45.39 156.43 45.39 97.22 24.79 92.29 12.83 97.22 12.83 156.43"/><path class="cls-2" d="M131.1,139.05c0,10.36-8.58,16.26-18.41,16.26s-18.41-5.84-18.41-16.26,8.58-16.33,18.41-16.33S131.1,128.62,131.1,139.05Zm-25.38,0c0,3.87,2.56,6.85,7,6.85s7-3,7-6.85a7,7,0,0,0-13.94,0Z"/><path class="cls-2" d="M135.68,104.85h10.84v21.87a12.56,12.56,0,0,1,9.48-4c9.06,0,15.31,7.51,15.31,16.26s-6.31,16.33-15.43,16.33c-3.58,0-7.27-1.37-9.24-4.41h-.12v3.39H135.68Zm10.48,34.2c0,3.87,2.56,6.85,7,6.85s7-3,7-6.85a7,7,0,0,0-13.94,0Z"/><path class="cls-2" d="M187.56,128.74h.12c2.08-3.75,5.66-5.42,9.89-5.42h2.08v10.43a8.75,8.75,0,0,0-4.58-1c-6,0-7.51,4-7.51,9.23V154.3H176.72V123.74h10.84Z"/><path class="cls-2" d="M237.17,154.3H226.32v-3.39h-.12c-1.91,3-5.66,4.41-9.23,4.41-9.06,0-15.43-7.56-15.43-16.33s6.26-16.26,15.31-16.26a12.46,12.46,0,0,1,9.47,4v-3h10.84Zm-24.43-15.25c0,3.87,2.56,6.85,7,6.85s7-3,7-6.85a7,7,0,0,0-13.94,0Z"/><polygon class="cls-1" points="42.9 102.1 27.63 99.1 27.63 95.25 42.9 98.5 42.9 102.1"/><polygon class="cls-1" points="42.9 107.3 27.63 105.3 27.63 101.13 42.9 103.7 42.9 107.3"/><polygon class="cls-1" points="42.9 112.5 27.63 111.19 27.63 107.06 42.9 108.9 42.9 112.5"/><polygon class="cls-1" points="42.9 117.7 27.63 116.94 27.63 113 42.9 114.1 42.9 117.7"/><polygon class="cls-1" points="42.9 122.9 27.63 122.38 27.63 118.63 42.9 119.3 42.9 122.9"/><polygon class="cls-1" points="42.9 128.1 27.63 128.1 27.63 124.08 42.9 124.5 42.9 128.1"/><polygon class="cls-1" points="42.9 133.3 27.63 133.94 27.63 129.7 42.9 129.7 42.9 133.3"/><polygon class="cls-1" points="42.9 138.5 27.63 140.38 27.63 136 42.9 134.9 42.9 138.5"/><polygon class="cls-1" points="42.9 143.7 27.63 147.06 27.63 142.5 42.9 140.1 42.9 143.7"/><polygon class="cls-1" points="42.9 148.9 27.63 152.81 27.63 148.9 42.9 145.3 42.9 148.9"/><polygon class="cls-1" points="42.9 154.1 27.63 158.1 27.63 154.5 42.9 150.5 42.9 154.1"/></g></svg>