<svg xmlns="http://www.w3.org/2000/svg" viewBox="0 0 250 250"><defs><style>.cls-1{fill:#00576e;}.cls-2{fill:#fff;}</style></defs><title>_logo-itsos-2</title><g id="_logo-itsos-2"><rect class="cls-1" width="250" height="250"/><path class="cls-2" d="M52,86.55H87.21c2.29,0,1.79,1.73,1.73,3-.26,3.33-1.12,6.58-1.68,9.88a3.14,3.14,0,0,1-2.91,3c-3.2.14-6.4-.14-9.6.15-3.12,19.07-6.6,38.07-9.91,57.1-.2,1.44-.66,3.51-2.53,3.49a88.57,88.57,0,0,1-11.92-.07c-2.11-.6-1.88-3.21-1.52-4.9,3.3-18.56,6.46-37.15,9.7-55.71-3-.11-6,.11-9.05-.07a2.72,2.72,0,0,1-2.2-3,81.55,81.55,0,0,1,2-11.48C49.55,87.29,49.7,86.55,52,86.55Z"/><path class="cls-2" d="M112.31,86.55h11.75c3.5.25,7.13,1.58,9.33,4.43a13.12,13.12,0,0,1,1.9,10.25c-.81,3.83-1,7.81-2.21,11.55-.41,1.57-2.26,1.79-3.62,1.84-3,.06-6,.11-9,0-1.28,0-3-.83-3-2.32-.12-3.33,1.09-6.53,1.17-9.85a46.3,46.3,0,0,0-7.09.18c-.82.71-.72,1.92-1,2.87A88.2,88.2,0,0,0,109,115.69c6.27,2.08,12.52,4.27,18.75,6.51a4.84,4.84,0,0,1,2.86,5.89c-1.13,6.11-2.22,12.23-3.22,18.37-.79,4.49-2,9.29-5.54,12.43-2.8,3-7,3.86-10.83,4.56H96.54c-3.35-1-7-2.63-8.56-6-2.83-5.1-.54-10.92.19-16.25.54-2,.26-5.13,2.82-5.65a95,95,0,0,1,10.57-.17,3,3,0,0,1,3.35,2.41c-.19,3.24-1.33,6.38-1.15,9.66,2.36-.14,4.82.29,7.12-.29,1.31-3.72,1.57-7.83,2.34-11.72l-.28-.56c-6.2-2.59-12.72-4.37-19-6.79a4.62,4.62,0,0,1-2.5-5.34c1.16-7.28,2.51-14.53,3.75-21.8a18.47,18.47,0,0,1,5.71-10.64C104.1,87.67,108.3,86.85,112.31,86.55Z"/><path class="cls-2" d="M214.85,86.55H226.6A11.86,11.86,0,0,1,238,95.79v4.89c-.7,3.29-1.24,6.62-1.79,9.94-.32,1.54-.75,3.72-2.7,3.81a79.31,79.31,0,0,1-10.54.14,2.87,2.87,0,0,1-3-3.17c.15-3,1-5.84,1.33-8.8a59,59,0,0,0-6.63.05c-1.43,0-1.21,1.75-1.55,2.68-.53,3.32-1.21,6.6-1.65,9.94,6.14,3,13.06,4.46,19.38,7.18a4.8,4.8,0,0,1,2.28,5.52c-1.15,6.57-2.38,13.12-3.46,19.7-.78,4.79-2.75,9.73-6.88,12.58-2.67,2-6,2.56-9.19,3.19H199.1c-3.56-1-7.33-2.83-8.84-6.45-2.29-4.43-.65-9.43.08-14,.53-2.36.44-5.07,2-7.06,3-1,6.37-.39,9.53-.59,2,0,5.13-.23,5.48,2.47,0,3.26-1.37,6.38-1.11,9.65,2.4-.37,5.42.78,7.45-.7.81-3.75,1.33-7.58,2-11.36l-.35-.57c-6.12-2.54-12.57-4.23-18.69-6.76a4.16,4.16,0,0,1-2.76-4.55c1-7.31,2.53-14.55,3.7-21.84.68-4,2.26-8.12,5.38-10.92C206.18,87.73,210.62,86.78,214.85,86.55Z"/><path class="cls-2" d="M25.51,87.26c4.48-.14,9,0,13.43,0,1.76.44,1.48,2.58,1.29,3.94q-6.08,34.24-12.09,68.52c-.26,1.49-.28,2.83-2.86,3.13-4.19-.12-8.4.22-12.58-.17-1-.13-1-1.08-.11-6.25.53-3.16,1.12-6.36,1.67-9.51,3.13-18.62,6.6-37.18,9.68-55.8C24.19,89.72,24.46,87.29,25.51,87.26Z"/><path class="cls-2" d="M146.66,100c1.19-6.45,6.48-12.11,13.11-12.92,5.19-.57,10.43-.21,15.65-.26a11.09,11.09,0,0,1,10.75,7.34,13.17,13.17,0,0,1,.42,7.58c-2.86,15.57-5.58,31.17-8.37,46.76-.78,4.55-2.88,9.08-6.76,11.78-2.62,2-6,2.53-9.09,3.2H147.19c-2.37-1.14-5-2-6.76-4.12A12.58,12.58,0,0,1,138,149C141,132.7,143.7,116.31,146.66,100ZM162,103.22c-2.64,14.83-5.47,29.64-7.84,44.52a71.83,71.83,0,0,0,7.75,0c1-.26.9-1.6,1.21-2.41,2-11.59,4.12-23.14,6.08-34.73.38-2.78,1.19-5.51,1.21-8.33C167.74,102.56,164.15,101.16,162,103.22Z"/></g></svg>