<svg xmlns="http://www.w3.org/2000/svg" viewBox="0 0 250 250"><defs><style>.cls-1{fill:#e0c5ce;}.cls-2{fill:#fff;}.cls-3{fill:#42210b;}</style></defs><title>_logo-tuapp</title><g id="_logo-itsos-2"><rect class="cls-1" width="250" height="250"/><rect class="cls-2" x="28.03" y="204.02" width="20.95" height="18.94" rx="1.25" ry="1.25"/><rect class="cls-2" x="28" y="204.02" width="20.98" height="8.65"/><path class="cls-2" d="M54.59,215.56a2.23,2.23,0,0,1-4.45.19q0-.1,0-.19v-10a2.23,2.23,0,0,1,4.45,0Z"/><path class="cls-2" d="M26.86,215.56a2.23,2.23,0,0,1-4.45.19q0-.1,0-.19v-10a2.23,2.23,0,0,1,4.45,0Z"/><path class="cls-2" d="M28.09,202.76s.21-8.87,10.41-8.84,10.41,8.84,10.41,8.84Z"/><path class="cls-2" d="M33.58,195.11c0,.06.16,0,.25,0s.16-.19.12-.21L32,192.12c0-.06-.16,0-.25,0s-.16.19-.12.21Z"/><path class="cls-2" d="M43.4,195.11c0,.06-.16,0-.25,0s-.16-.19-.12-.21l2-2.75c0-.06.16,0,.25,0s.16.19.12.21Z"/><path class="cls-2" d="M45,228.54a2.23,2.23,0,0,1-4.45,0v-10a2.23,2.23,0,0,1,4.45-.19q0,.1,0,.19Z"/><path class="cls-2" d="M36.43,228.54a2.23,2.23,0,0,1-4.45,0v-10a2.23,2.23,0,0,1,4.45-.19q0,.1,0,.19Z"/><path class="cls-1" d="M33.93,197a1.25,1.25,0,1,1-.25,0Z"/><path class="cls-1" d="M43.05,197a1.25,1.25,0,1,1-.25,0Z"/><path class="cls-2" d="M219.44,230.93a16.9,16.9,0,0,1-5.47-1.51s.95-3.65,1-3.71c2.59.88,6.23,2.11,8.68,1a3.07,3.07,0,0,0,1.76-3.33c-.25-1.6-1.36-2.53-4.41-3.67-3.4-1.27-5.4-2.83-6.21-4.87a6.65,6.65,0,0,1-.35-3.38c.5-3.09,2.91-5.24,6.61-5.9a17.79,17.79,0,0,1,4.49,0c1.62.27,3.49.89,3.49,1.15,0,.1-.95,3.45-1,3.52a14.42,14.42,0,0,0-4.92-1.1c-2.16,0-4.49,1.25-4.08,3.52.29,1.41,1.2,2.11,4.52,3.46a12.41,12.41,0,0,1,4.63,2.71,6.35,6.35,0,0,1,1.85,4.66,6,6,0,0,1-.6,3q-1.76,3.81-7.16,4.42a19.32,19.32,0,0,1-2.81,0Zm-36.93-18V231h4.6V212.9Zm2.31-7.51a2.46,2.46,0,1,0,2.46,2.46A2.46,2.46,0,0,0,184.82,205.39Zm18,3.82c2.46.65,4.25,2.88,4.92,6.12a14,14,0,0,1-.35,7c-1.06,3.23-3.4,5-6.23,5s-5.15-1.79-6.23-5a14,14,0,0,1-.35-7c.69-3.24,2.46-5.46,4.92-6.12a8.33,8.33,0,0,1,3.3,0Zm-1.63-3.82a11.45,11.45,0,0,0-5.14,1.2c-4.1,2-6.46,6.33-6.46,11.76s2.33,9.6,6.44,11.55a11.82,11.82,0,0,0,3.91,1,16,16,0,0,0,2.49,0,11.82,11.82,0,0,0,3.91-1c4.12-2,6.44-6.12,6.44-11.55s-2.38-9.71-6.49-11.75a11.45,11.45,0,0,0-5.12-1.2Z"/><path class="cls-3" d="M75.12,95.87v5H65.26v27H59.38v-27H49.51v-5Z"/><path class="cls-3" d="M97.62,127.22q-1.62.42-4.21.86a34.19,34.19,0,0,1-5.7.44,12.56,12.56,0,0,1-4.88-.83,7.83,7.83,0,0,1-3.15-2.31A9.09,9.09,0,0,1,78,121.83a18.78,18.78,0,0,1-.51-4.51V103.75h5.6v12.69q0,3.89,1.13,5.56t4,1.67q1,0,2.15-.09a11.39,11.39,0,0,0,1.69-.23V103.75h5.6Z"/><path class="cls-3" d="M137.76,128q-.92-2.36-1.69-4.55t-1.47-4.25H118.92q-.8,2.08-1.57,4.26T115.72,128h-3.29q1.83-5,3.45-9.34t3.19-8.19q1.56-3.86,3.1-7.42t3.24-7.14h2.78q1.7,3.56,3.22,7.13t3.09,7.43q1.57,3.86,3.18,8.19t3.54,9.34Zm-11-28.48q-1.74,4-3.39,8.11t-3.42,8.88h13.7q-1.78-4.77-3.46-8.89T126.72,99.49Z"/><path class="cls-3" d="M148.64,136.53h-3V104.86a27.08,27.08,0,0,1,3.43-.88,27.65,27.65,0,0,1,5.28-.42,12.87,12.87,0,0,1,4.79.86,10.38,10.38,0,0,1,3.7,2.48,11.27,11.27,0,0,1,2.41,3.94,15,15,0,0,1,.86,5.23,16.74,16.74,0,0,1-.72,5,11.2,11.2,0,0,1-2.11,3.94,9.68,9.68,0,0,1-3.4,2.57,10.91,10.91,0,0,1-4.61.93,11.35,11.35,0,0,1-4.1-.67,10.66,10.66,0,0,1-2.52-1.27Zm0-12.87a10.05,10.05,0,0,0,1,.69,9.79,9.79,0,0,0,1.46.69,11.83,11.83,0,0,0,1.81.53,9.72,9.72,0,0,0,2,.21,8.18,8.18,0,0,0,3.73-.76,6.53,6.53,0,0,0,2.43-2.08,8.84,8.84,0,0,0,1.34-3.1,16.5,16.5,0,0,0,.42-3.77q0-4.72-2.36-7.25a8.16,8.16,0,0,0-6.25-2.52,24.71,24.71,0,0,0-3.59.21,13.29,13.29,0,0,0-2.06.44Z"/><path class="cls-3" d="M175.63,136.53h-3V104.86a27.08,27.08,0,0,1,3.43-.88,27.65,27.65,0,0,1,5.28-.42,12.87,12.87,0,0,1,4.79.86,10.38,10.38,0,0,1,3.7,2.48,11.27,11.27,0,0,1,2.41,3.94,15,15,0,0,1,.86,5.23,16.74,16.74,0,0,1-.72,5,11.2,11.2,0,0,1-2.11,3.94,9.68,9.68,0,0,1-3.4,2.57,10.91,10.91,0,0,1-4.61.93,11.35,11.35,0,0,1-4.1-.67,10.66,10.66,0,0,1-2.52-1.27Zm0-12.87a10.05,10.05,0,0,0,1,.69,9.79,9.79,0,0,0,1.46.69,11.83,11.83,0,0,0,1.81.53,9.72,9.72,0,0,0,2,.21,8.18,8.18,0,0,0,3.73-.76,6.53,6.53,0,0,0,2.43-2.08,8.84,8.84,0,0,0,1.34-3.1,16.5,16.5,0,0,0,.42-3.77q0-4.72-2.36-7.25a8.16,8.16,0,0,0-6.25-2.52,24.71,24.71,0,0,0-3.59.21,13.29,13.29,0,0,0-2.06.44Z"/><path class="cls-3" d="M153.38,61.76a19.57,19.57,0,0,0-.06,27.61A45.23,45.23,0,0,1,173.9,67.21a44.58,44.58,0,0,0-15.06,26,19.58,19.58,0,0,0,22.22-3.83c9.73-9.73,11.32-39,11.32-39S163.11,52,153.38,61.76Z"/></g></svg>