<svg xmlns="http://www.w3.org/2000/svg" viewBox="0 0 250 250"><defs><style>.cls-1{fill:#ee602d;}.cls-2{fill:#fff;}</style></defs><title>_logo-lumotrack-2</title><g id="_logo-lumotrack-1"><rect class="cls-1" width="250" height="250"/><path class="cls-2" d="M191.71,185.73a12.8,12.8,0,0,1,7.15-2.84,14.46,14.46,0,0,1,8.94,1.92,9.53,9.53,0,0,1,1.73,1.46c-.7,1-1.35,1.94-2.08,2.87a1.41,1.41,0,0,1-1.72.46,11.66,11.66,0,0,0-2.81-1.38,7.25,7.25,0,0,0-3.41-.3,7.1,7.1,0,0,0-4.33,2.07,6.09,6.09,0,0,0-1.58,3.13,10.9,10.9,0,0,0,.78,8,6.61,6.61,0,0,0,2.74,2.68,6.31,6.31,0,0,0,3.31.63,7,7,0,0,0,3-.75c.52-.43,1.07-.83,1.62-1.22a4.4,4.4,0,0,0,.93,0,1.17,1.17,0,0,1,.91.44l2.34,2.47a10.45,10.45,0,0,1-3.14,2.65,14.24,14.24,0,0,1-7.56,1.42,12.51,12.51,0,0,1-7.7-3.33,13.18,13.18,0,0,1-3.43-6.26,14.45,14.45,0,0,1,.12-7.8A13.11,13.11,0,0,1,191.71,185.73Z"/><path class="cls-2" d="M116.7,183.36h20.58v4.78H130q0,10.56,0,21.12h-6q0-10.56,0-21.12c-2.43,0-4.86,0-7.29,0C116.69,186.55,116.71,185,116.7,183.36Z"/><path class="cls-2" d="M139.81,183.36c3.2,0,6.39,0,9.59,0a11.18,11.18,0,0,1,6.94,2.16,6.08,6.08,0,0,1,2.11,3.29,8.5,8.5,0,0,1-.13,4.33,7.7,7.7,0,0,1-5,5.21,5.44,5.44,0,0,1,2,1.76c1.89,3,3.77,6.09,5.65,9.14-1.89,0-3.77,0-5.66,0a2.09,2.09,0,0,1-1.84-1.06c-1.49-2.66-3-5.31-4.47-8-.84-.91-2.2-.6-3.3-.65q0,4.85,0,9.69h-6Q139.81,196.31,139.81,183.36Zm6.11,4.52c0,2.52,0,5,0,7.57a16.77,16.77,0,0,0,4.44-.3,3.58,3.58,0,0,0,2-1.6,5.08,5.08,0,0,0,.27-3.32,3.07,3.07,0,0,0-2-2.07A18.8,18.8,0,0,0,145.91,187.88Z"/><path class="cls-2" d="M171.42,183.36h6.11q5,13,10.09,25.9h-4.14a2.26,2.26,0,0,1-2.42-1.13c-.57-1.57-1.11-3.14-1.67-4.71h-9.83L168,207.86a2,2,0,0,1-2,1.39h-4.65Zm-.53,15.94h7q-1.17-3.49-2.37-7c-.47-1.18-.77-2.42-1.2-3.61C173.36,192.29,172,195.77,170.88,199.3Z"/><path class="cls-2" d="M211.92,183.36h6v10.5a5.59,5.59,0,0,0,2.36-.26,2.41,2.41,0,0,0,.82-.91l5-7.3a9.27,9.27,0,0,1,1-1.36,3.07,3.07,0,0,1,2-.66c1.75,0,3.51,0,5.27,0l-7.9,10.76a5.11,5.11,0,0,1-1.54,1.32,4.13,4.13,0,0,1,1.9,1.39c.75,1,1.37,2.08,2.07,3.11,2.05,3.13,4,6.31,6.13,9.41v.06c-1.84,0-3.69,0-5.53,0a2.41,2.41,0,0,1-1.63-.61,23.92,23.92,0,0,1-1.45-2.12l-4.85-7.49a2,2,0,0,0-.91-.8,7.42,7.42,0,0,0-2.76-.25v11h-6Q211.92,196.24,211.92,183.36Z"/><path class="cls-2" d="M99.37,183.81a13.13,13.13,0,0,1,8.05,1.06,10.66,10.66,0,0,1,3.39,2.56,13.37,13.37,0,0,1,2.33,4,14.66,14.66,0,0,1,.88,6.23,13.09,13.09,0,0,1-3.66,8.68,11.72,11.72,0,0,1-3.56,2.4,13,13,0,0,1-6.69.86,11.74,11.74,0,0,1-5.59-2.19,11.47,11.47,0,0,1-3.71-4.81,15,15,0,0,1-1.08-8,13.27,13.27,0,0,1,2.11-5.74A11.31,11.31,0,0,1,99.37,183.81Zm.79,1.59a9.43,9.43,0,0,0-6.88,5.29,14.35,14.35,0,0,0-1.08,8.42,11.52,11.52,0,0,0,2.63,5.79,9.66,9.66,0,0,0,5,2.92,10.81,10.81,0,0,0,7.27-.93,8.76,8.76,0,0,0,4.38-5.41,17.54,17.54,0,0,0,.3-8.41,10.45,10.45,0,0,0-1.8-4.13,8,8,0,0,0-2.41-2.24A10.39,10.39,0,0,0,100.16,185.4Z"/><path class="cls-2" d="M15,184c.62,0,1.24,0,1.86,0q0,11.82,0,23.65H28.66q0,.8,0,1.59H15Q15,196.64,15,184Z"/><path class="cls-2" d="M32.77,184h1.86c0,5.25,0,10.5,0,15.74a9.12,9.12,0,0,0,2.19,6,7.42,7.42,0,0,0,5.22,2.15,7.49,7.49,0,0,0,5.25-1.7,6.57,6.57,0,0,0,2.23-3.4,9.8,9.8,0,0,0,.5-3.33q0-7.73,0-15.46c.62,0,1.24,0,1.86,0,0,5.2,0,10.4,0,15.6a10.52,10.52,0,0,1-3.09,7.56,10,10,0,0,1-12.28.48,8.67,8.67,0,0,1-3-4,12.5,12.5,0,0,1-.77-4.22Q32.77,191.76,32.77,184Z"/><path class="cls-2" d="M59.2,184.15c.55,0,1.11,0,1.66,0,.2.1.24.36.37.54l10,17.06a4.34,4.34,0,0,1,.65,1.25c.42-1,1-1.85,1.48-2.76l8.16-14.37c.35-.58.63-1.19,1-1.74H84.3q0,12.62,0,25.23H82.7q0-11.27,0-22.55c-3.24,5.7-6.44,11.42-9.66,17.13-.21.33-.35.8-.78.89s-1,.1-1.2-.32c-3.43-5.89-6.82-11.81-10.26-17.7q0,11.28,0,22.55H59.2Z"/><path class="cls-2" d="M124.56,25.14h.75c1.12.06,2.22.21,3.34.28a34.36,34.36,0,0,1,12.5,3.29,27.33,27.33,0,0,1,1.84,8c-.13,2.63.36,5.34-.49,7.88-.41,1.48-.49,3.13-1.36,4.43-.6-1.27-.78-2.73-1.65-3.87a12.57,12.57,0,0,0-4-4,25.3,25.3,0,0,0-4.71-2.72c-2-.81-3.76-2.12-5.85-2.69-1.93-.45-3.78-1.16-5.71-1.57-1.38-.54-2.89-.47-4.31-.83-4.26-.88-8.61-.38-12.9-.19A36.66,36.66,0,0,1,124.56,25.14Z"/><path class="cls-2" d="M144.79,30.79A28.19,28.19,0,0,1,155.33,43a23.7,23.7,0,0,1-1,20.7,49.6,49.6,0,0,1-3.08,4.52C146.1,75.34,141,82.53,135.83,89.64c-3.29-4.16-6.41-8.45-9.48-12.77,4.19-5.91,8.42-11.8,12.6-17.72a45.69,45.69,0,0,0,4.23-7.6,35.61,35.61,0,0,0,2.41-16.28A33.68,33.68,0,0,0,144.79,30.79Z"/><path class="cls-2" d="M99,35.86c2,0,3.92-.71,5.91-.62a47.38,47.38,0,0,1,6.09.22,36.89,36.89,0,0,1,4.09.31c2.9.77,5.92,1.18,8.7,2.38a21.74,21.74,0,0,0-3.28.41,39.44,39.44,0,0,0-5.86,2.26c-2.27,1.34-3.71,3.65-5.2,5.75a34.14,34.14,0,0,0-4.43,7.1c-.75,1.62-1.25,3.33-1.89,5-.43,1.08-.43,2.32-1.08,3.31a9,9,0,0,1-.57,2.92,41.37,41.37,0,0,0,.23,7.52Q99.42,69.21,97.2,66a25.1,25.1,0,0,1-4.44-13.37v-1c0-1,.1-2,.21-3A23.39,23.39,0,0,1,99,35.86Z"/><path class="cls-2" d="M107.42,55a6.41,6.41,0,0,1,1.05-1.89,11.83,11.83,0,0,0,2.61,6.83c5.16,6.91,10.2,13.91,15.5,20.71q3.89,5.12,7.78,10.23c-3.17,4.26-6.22,8.61-9.51,12.78-6.32-8.61-12.67-17.19-19-25.81a25.35,25.35,0,0,1-1.5-10.28c.31-2.67.24-5.44,1.27-8C106.19,58,106.88,56.5,107.42,55Z"/><path class="cls-2" d="M141.5,105.4h3q0,15.61,0,31.21h-.89c0,1,0,2,0,3a9.07,9.07,0,0,1,2.76.2,2.68,2.68,0,0,1,1.69,2.55c0,3,0,5.93,0,8.9a3.5,3.5,0,0,1-.3,1.44c1.15-.16,2.63.23,3,1.5,0,1,0,2,0,3a1.87,1.87,0,0,1-1.86,1.76H101a1.89,1.89,0,0,1-2-1.74c0-1.11,0-2.22,0-3.33a2,2,0,0,1,2.26-1.45,3.6,3.6,0,0,1-.22-1.47c0-2.87,0-5.75,0-8.62a2.64,2.64,0,0,1,2.05-2.61,16.69,16.69,0,0,1,2.7-.09q0-1.48,0-3h-.89q0-15.6,0-31.21h3c0,1.35,0,2.7,0,4a5.13,5.13,0,0,1,2.63-.77h28.19a4.85,4.85,0,0,1,2.79.82C141.47,108.13,141.51,106.77,141.5,105.4ZM111.18,120v8.92h26.75q0-4.46,0-8.92Zm6.53,15.6a1.89,1.89,0,0,0-1.17,1.71c0,3.77,0,7.54,0,11.3a1.9,1.9,0,0,0,2,2c4.07,0,8.15,0,12.22,0a1.9,1.9,0,0,0,1.82-2c0-3.76,0-7.52,0-11.28a1.87,1.87,0,0,0-1.85-1.82c-3.85,0-7.7,0-11.55,0A4.18,4.18,0,0,0,117.71,135.56Zm-10.87,11.38a1.92,1.92,0,0,0-1,1.6,1.89,1.89,0,0,0,1.73,1.73c1.1,0,2.21,0,3.32,0a1.85,1.85,0,0,0,1.16-2.83c-.6-.86-1.74-.69-2.65-.7A6.69,6.69,0,0,0,106.84,146.94ZM138,147a1.77,1.77,0,0,0,.7,3.3c1.49-.17,3.5.61,4.55-.82a1.71,1.71,0,0,0-1.24-2.7C140.69,146.79,139.26,146.49,138,147Z"/><path class="cls-2" d="M118,136.77a3.52,3.52,0,0,1,1.43-.16c3.76,0,7.52,0,11.27,0,.92.07.86,1.73-.07,1.72-4,0-8.07,0-12.09,0C117.71,138.49,117.45,137.23,118,136.77Z"/><path class="cls-2" d="M118,140.33a3.71,3.71,0,0,1,1.41-.16c3.66,0,7.32,0,11,0,1-.14,1.37,1.62.31,1.74-3.66.1-7.34,0-11,0a5.69,5.69,0,0,1-1.63-.12A1,1,0,0,1,118,140.33Z"/><path class="cls-2" d="M118,144.2a3.42,3.42,0,0,1,1.43-.15c3.75,0,7.5,0,11.26,0,.76,0,.88,1.2.35,1.6a3,3,0,0,1-1.24.15H119.18a2.17,2.17,0,0,1-1.22-.22A1.06,1.06,0,0,1,118,144.2Z"/><path class="cls-2" d="M118,147.77a3.29,3.29,0,0,1,1.41-.17c3.76,0,7.53-.05,11.3,0,.89.07.87,1.68,0,1.71-4.05.05-8.11,0-12.16,0C117.7,149.48,117.46,148.23,118,147.77Z"/><path class="cls-2" d="M103.69,160.12c2.81,0,5.61,0,8.42,0a4.12,4.12,0,0,1-3.73,4.45h-.56A4.84,4.84,0,0,1,103.69,160.12Z"/><path class="cls-2" d="M137,160.12c2.79,0,5.59,0,8.38,0a4,4,0,0,1-.56,2.8c-.64,1.12-1.94,1.42-3.11,1.65h-.22A4.73,4.73,0,0,1,137,160.12Z"/></g></svg>