<svg id="Layer_1" data-name="Layer 1" xmlns="http://www.w3.org/2000/svg" viewBox="0 0 556.47 439.48"><defs><style>.cls-1{fill:#6a1a34;}.cls-2{fill:#f8f4ff;}.cls-3,.cls-6{fill:#fff;}.cls-3,.cls-5,.cls-8{fill-rule:evenodd;}.cls-4,.cls-5{fill:#a42d43;}.cls-7{fill:#4b2939;}.cls-8{fill:#fffefe;}</style></defs><title>img-tecnologias</title><path class="cls-1" d="M235.34,56.11A35.18,35.18,0,1,0,270.5,20.9,35.19,35.19,0,0,0,235.34,56.11Z"/><path class="cls-2" d="M250.29,69.8V42.38a.29.29,0,0,1,.29-.29h40a.29.29,0,0,1,.29.29V69.8a.29.29,0,0,1-.29.29h-40a.29.29,0,0,1-.29-.29Z"/><polygon class="cls-1" points="281.51 56.11 266.81 66.78 266.81 45.4 281.51 56.11"/><path class="cls-1" d="M118.93,315.56a31.65,31.65,0,1,0,31.66-31.66A31.69,31.69,0,0,0,118.93,315.56Z"/><path class="cls-3" d="M170.25,305.39c0-.11,0-.15-.18-.15-.86,0-1.7,0-2.53,0-3.94,0-7.93.07-11.82.13-.86,0-1.65,0-2.49.09-.15,0-.15,0-.15.13V308c0,.07,0,.13.15.15.48,0,1,0,1.5.07,1.5,0,3,.09,4.51.15l.2,0-.24.24c-2.62,2.22-5.26,4.45-7.84,6.65-.22.2-.2.2-.37,0-2.25-2.77-4.49-5.55-6.74-8.37-.53-.62-1.06-1.28-1.61-1.92l.11,0c.84-.07,1.72-.18,2.58-.2s1.83-.15,2.77-.2c.13,0,.18,0,.18-.18,0-.79.09-1.61.2-2.38,0-.13,0-.2-.15-.2H128.19c-.13,0-.18.07-.18.2v2.31c0,.24,0,.24.22.24l5.7.4a.45.45,0,0,1,.31.18c1.63,2,3.28,4,5,6,2.14,2.64,4.34,5.26,6.47,7.9a.43.43,0,0,1,.13.31v6.94c0,.15,0,.18-.13.2-.95.09-1.87.15-2.84.2-1.12.09-2.31.18-3.44.31-.15,0-.2,0-.2.2v2c0,.22,0,.22.24.22h19.88c.09,0,.13,0,.13-.15V327.1l-.09-.13c-.35,0-.66,0-.9,0-1.83-.13-3.61-.18-5.39-.22-.15,0-.15,0-.15-.22,0-2.47.11-5,.15-7.44a.24.24,0,0,1,.11-.24c.88-.75,1.78-1.54,2.6-2.31,2.84-2.51,5.64-5,8.46-7.51.11-.09.15-.13.29-.13a11.47,11.47,0,0,1,1.21-.07c1.48-.13,2.86-.22,4.38-.37.09,0,.13,0,.13-.18Q170.18,306.81,170.25,305.39Z"/><path class="cls-3" d="M174.36,311.51a1.88,1.88,0,0,1-.09.51c-.42,1.72-.86,3.48-1.26,5.22-.48,2-1,3.92-1.43,5.88l-.07,0-2.07-.22h-.13l-.07-.07v-.75a3.33,3.33,0,0,0,0-.66c0-.64,0-1.34,0-2s0-1.45,0-2.2,0-1.45,0-2.16,0-1.5,0-2.22c0-.51,0-1,0-1.52l.07-.07c.42,0,.86,0,1.3.07.26,0,.51,0,.77,0,.51,0,1,0,1.54.09.31,0,.66,0,1,0h.22Z"/><path class="cls-3" d="M170.4,327.14h-1.32l-.07-.07a11.93,11.93,0,0,0-.13-1.28,11.2,11.2,0,0,1-.09-1.21l0,0a3.33,3.33,0,0,0,.66,0l.95.09c.35,0,.75,0,1.08.09h.26l0,.07v2.25l0,.07Z"/><path class="cls-4" d="M386.46,352.53a27.83,27.83,0,1,0,27.83-27.85A27.85,27.85,0,0,0,386.46,352.53Z"/><path class="cls-3" d="M416.57,337.29l0,0Zm-.09,0v0ZM430,359l0-.18v-.07l0-.15v0a8.48,8.48,0,0,0-1-3.39l-.09-.07-.07-.18v-.11l.09-.48,0-.13,0-.11,0-.13v0l0-.29v0s0-.09,0-.2h0l0-.2c0-.26,0-.59,0-.9v-.07a7.43,7.43,0,0,0,0-1.21,5.38,5.38,0,0,0-.11-.86v0l0-.13V350l0-.15-.13-.55-.24-1-.44-1.17a6.8,6.8,0,0,0-.31-.7l-.22-.57a22.09,22.09,0,0,0-1.48-2.36,3.17,3.17,0,0,0-.48-.59,8.62,8.62,0,0,0-.81-1l-.09-.09-.24-.24-.26-.29-.09-.07c-.33-.31-.68-.59-1-.9l-.68-.46,0-.09a17,17,0,0,0-4.49-2.18c-.37-.09-.77-.2-1.17-.26h0l-.09,0-.09,0h0l-.11,0,0,0,0,0h0l-.44-.09h-.13l0,0-.11,0h-.18l-.15,0h-.22l-.15,0h-.31l-.22,0h-.07l0,0H414a7.11,7.11,0,0,0-1,0,5.61,5.61,0,0,0-.86,0h-.26l-.18,0h-.22l-.15,0h0l-.42,0a.67.67,0,0,1-.57-.13,10.17,10.17,0,0,0-3.68-1h-1.43a2.68,2.68,0,0,0-.7.09,8.82,8.82,0,0,0-2.75,1,9.45,9.45,0,0,0-1.92,1.43c-.24.24-.46.51-.68.7A10.51,10.51,0,0,0,398,341a9.71,9.71,0,0,0-.7,1.72,7.73,7.73,0,0,0-.35,2.11v1.21h0a8.93,8.93,0,0,0,.51,2.51,5.45,5.45,0,0,0,.57,1.32.73.73,0,0,1,0,.31,3.9,3.9,0,0,0-.11.9l0,.07a14.15,14.15,0,0,0,0,2.16,7.57,7.57,0,0,0,.11,1l0,.11v0l0,.15v.15l0,0v.09l0,.09a15.59,15.59,0,0,0,1.17,3.85,7.71,7.71,0,0,0,.55,1.14l0,.07a14.19,14.19,0,0,0,1.1,1.72,10.45,10.45,0,0,0,.88,1.08l.09.11.11.11.11.15.2.2.07.09a13.85,13.85,0,0,0,2.22,1.83,6,6,0,0,0,1.08.68l.37.2.29.13.07,0a9.2,9.2,0,0,0,1.67.68,5,5,0,0,0,1.14.37l.4.09.09,0,.18,0,.24.07.11,0h.09l.24,0h0l.11,0h.15l.13,0h.18l.11,0h0l.15,0h0l.18,0h.24l.07,0h0l.26,0a1.52,1.52,0,0,0,.44,0h0l.09,0a16.72,16.72,0,0,0,2.36-.13c.35,0,.66-.07,1-.11l.09,0a9.86,9.86,0,0,0,4.05,1.23v0h1.19v0l.7,0a5.28,5.28,0,0,0,1.32-.33,5.2,5.2,0,0,0,1.5-.64,8.83,8.83,0,0,0,1.78-1.3l.79-.86a9.42,9.42,0,0,0,1.26-1.89,11.05,11.05,0,0,0,.73-1.81A8.84,8.84,0,0,0,430,360l0-.11v-.07l0-.15,0-.18Z"/><path class="cls-5" d="M410.45,343l.55-.07.13,0,.09,0,.11,0h0l.13,0h0l.13,0,.2,0h0l.2,0h.07l.31,0h.81a12.77,12.77,0,0,1,1.32.13A8.92,8.92,0,0,1,418,344a10.16,10.16,0,0,1,1.1.81,5.65,5.65,0,0,1,.86,1l.29.7v.09l0,.13a2.09,2.09,0,0,1-.07.84,1.67,1.67,0,0,1-2,1.12,1.36,1.36,0,0,1-.59-.29,3.3,3.3,0,0,1-.64-.59,5.28,5.28,0,0,0-1.1-1,.34.34,0,0,1-.22-.13l0,0c-.24-.09-.48-.22-.73-.31a3.69,3.69,0,0,0-1.3-.37,5.65,5.65,0,0,0-1.06,0,3.08,3.08,0,0,0-1.74.55,2.23,2.23,0,0,0-.86,1.1,1,1,0,0,0,.2,1.08,2.34,2.34,0,0,0,.88.73,10.41,10.41,0,0,0,1.37.55l.24.11a5.46,5.46,0,0,0,.86.22c.77.22,1.54.33,2.33.53l1.12.33.09,0,.86.37a8.42,8.42,0,0,1,2.4,1.63l.18.22a5.79,5.79,0,0,1,.62.88,4.82,4.82,0,0,1,.42,1.28l0,.09v.15a3.76,3.76,0,0,1,0,.7,5.66,5.66,0,0,1-.13.77,6.15,6.15,0,0,1-2,3.08l-.07,0,0,0-.09.09-.26.2a1.41,1.41,0,0,1-.29.22l-.09.07c-.24.11-.48.26-.73.4l-.15.09a.77.77,0,0,1-.31.13,11,11,0,0,1-1.19.44,4.09,4.09,0,0,0-.75.13l-.57.07-.18,0-.31,0-.07,0c-.44,0-.9,0-1.34-.07a11.1,11.1,0,0,1-2.44-.35h-.07a.32.32,0,0,0-.22-.07,2.32,2.32,0,0,0-.42-.13c-.37-.15-.73-.26-1.08-.44a6.67,6.67,0,0,1-2.53-1.83l-.37-.53a3.42,3.42,0,0,1-.37-.88l0-.18,0-.11v0a1,1,0,0,1,0-.35v0l0-.09a1.48,1.48,0,0,1,.37-.79,1.82,1.82,0,0,1,.95-.51l.09,0,.13,0,.2,0a1.65,1.65,0,0,1,.48,0,1.53,1.53,0,0,1,1,.53l.24.2a1.16,1.16,0,0,1,.31.26c.18.22.35.46.57.7a5.4,5.4,0,0,0,1.52,1.06l.2.13a7.41,7.41,0,0,0,1.06.31l.07,0h.13l.15,0h.24a1.45,1.45,0,0,0,.62,0H414l0,0,.13,0a3.4,3.4,0,0,0,1.7-.64,2.11,2.11,0,0,0,.84-1.41,1.67,1.67,0,0,0-.59-1.59,5.14,5.14,0,0,0-.77-.51c-.51-.22-1-.37-1.56-.57l-1.85-.46-.13-.09a11.13,11.13,0,0,1-1.17-.26,12.61,12.61,0,0,1-2.66-1,4.63,4.63,0,0,0-.53-.31,8.62,8.62,0,0,1-.73-.59,4,4,0,0,1-1.12-2.22v-.07l0-.13v0l0-.15v0c0-.26,0-.51,0-.75l0-.13v0l0-.18v0l0-.15v-.13l.09-.37v-.09l.15-.4a5,5,0,0,1,1-1.74,6.34,6.34,0,0,1,2-1.43,5.37,5.37,0,0,1,.75-.31l.07,0A5.19,5.19,0,0,0,410.45,343Z"/><path class="cls-4" d="M121,177.41a26.78,26.78,0,1,0,26.78-26.75A26.78,26.78,0,0,0,121,177.41Z"/><path class="cls-6" d="M137.46,178.45v4.84h3.41a22,22,0,0,0,2.53-.07,2.84,2.84,0,0,0,1.32-.75,2.44,2.44,0,0,0,.51-1.54,2.36,2.36,0,0,0-.42-1.39,2,2,0,0,0-1.15-.84,12.23,12.23,0,0,0-3.26-.26Zm0-7.22v4.18h2.38c1.45,0,2.33,0,2.71-.07a2.61,2.61,0,0,0,1.45-.64,1.84,1.84,0,0,0,.57-1.43,1.94,1.94,0,0,0-.51-1.37,1.91,1.91,0,0,0-1.37-.64c-.37,0-1.41,0-3.13,0Zm-3.68-3.06h7.29a18.6,18.6,0,0,1,3.19.2,4.37,4.37,0,0,1,1.89.73,5.16,5.16,0,0,1,1.41,1.52,4.57,4.57,0,0,1,.57,2.16,4.28,4.28,0,0,1-2.58,3.94,4.63,4.63,0,0,1,2.58,1.65,4.36,4.36,0,0,1,.86,2.75,5.46,5.46,0,0,1-.55,2.4,5,5,0,0,1-1.56,1.87,4.94,4.94,0,0,1-2.49.86c-.59.07-2.07.11-4.4.13h-6.21Z"/><path class="cls-6" d="M159.92,178.67a3.18,3.18,0,0,0-.77-2.31,2.56,2.56,0,0,0-1.81-.79,2.49,2.49,0,0,0-1.89.84,3.1,3.1,0,0,0-.73,2.27Zm-.18,3.52,3.48.57a5.45,5.45,0,0,1-2.14,2.93,6.35,6.35,0,0,1-3.61,1,5.94,5.94,0,0,1-5.09-2.27,7.42,7.42,0,0,1-1.28-4.54,7.29,7.29,0,0,1,1.67-5.11,5.68,5.68,0,0,1,4.36-1.89,5.88,5.88,0,0,1,4.65,2c1.12,1.3,1.67,3.28,1.59,5.95h-8.7a3.2,3.2,0,0,0,.86,2.44,2.63,2.63,0,0,0,2,.86,2.17,2.17,0,0,0,1.37-.46A3,3,0,0,0,159.74,182.19Z"/><rect class="cls-6" x="153.51" y="168.63" width="7.75" height="3.1"/><path class="cls-7" d="M364.92,293a28.7,28.7,0,1,0,28.71-28.69A28.69,28.69,0,0,0,364.92,293Z"/><path class="cls-3" d="M392,302.83a3.65,3.65,0,0,1-2.4,3.15,8.2,8.2,0,0,1-3.61.7,9.17,9.17,0,0,1-5-1.39,4.1,4.1,0,0,1,.53-7.24,11.09,11.09,0,0,1,5.7-1C389.33,297.09,392.24,300.72,392,302.83Zm-9.14-14a8.88,8.88,0,0,1-1.74-6.32,3.56,3.56,0,0,1,2.53-3.19,3.48,3.48,0,0,1,3.9,1.08,9,9,0,0,1,2.31,5.59c0,2.49-.77,3.72-2.49,4.32A3.75,3.75,0,0,1,382.86,288.81Zm9.49,7.22c-.84-.77-1.74-1.41-2.6-2.14a1.85,1.85,0,0,1-.26-3,17.54,17.54,0,0,1,1.76-1.63,6.19,6.19,0,0,0,1-8.21c-.42-.59-1-1.1-1.61-1.89a5.16,5.16,0,0,0,4.58-1.34c-3.06,0-6,0-9,0a9.68,9.68,0,0,0-4.4,1.06c-4,1.87-5.53,6.65-3.13,10.08a6.49,6.49,0,0,0,5.86,2.66c.26,0,.92-.35.7.46-.44,1.39,0,2.55,1,3.85a8.82,8.82,0,0,0-1.1,0c-2.64.26-5.31.62-7.51,2.4a5,5,0,0,0,.53,8.61c3.63,2.25,10.68,1.67,13.92-1.14S395.61,299,392.35,296Z"/><polygon class="cls-6" points="399.46 287.36 399.46 283.7 395.78 283.7 395.78 281.21 399.46 281.21 399.46 277.56 401.93 277.56 401.93 281.21 405.6 281.21 405.6 283.7 401.93 283.7 401.93 287.36 399.46 287.36"/><path class="cls-4" d="M435,115.23a34.47,34.47,0,1,0,34.46-34.46A34.47,34.47,0,0,0,435,115.23Z"/><path class="cls-3" d="M460.53,95.61a.6.6,0,0,0-.35.18q-5.38,3.27-10.72,6.58l-1.74,1.08c-.37.22-.37.33-.07.59,1.1.92,2.22,1.83,3.3,2.73l4.34,3.5c.35.31.42.31.86.09,3.1-1.94,6.25-3.85,9.4-5.75,1-.64,2-1.23,3-1.85.4-.22.4-.33.07-.59-1.83-1.5-3.66-3-5.48-4.54l-2.2-1.81A.59.59,0,0,0,460.53,95.61Z"/><path class="cls-3" d="M478.39,95.63a.41.41,0,0,0-.35.15c-1.37,1.14-2.73,2.25-4.1,3.37-1.17,1-2.36,2-3.55,3l-.15.13c-.22.22-.22.31,0,.46.84.53,1.7,1,2.55,1.56,3.3,2,6.61,4,10,6,.42.29.44.31.84,0l4.58-3.74c1-.79,1.94-1.59,2.93-2.36l.07-.11c.4-.31.4-.35,0-.62L478.87,95.9A1.52,1.52,0,0,0,478.39,95.63Z"/><path class="cls-3" d="M455.66,111.93a.36.36,0,0,0-.29.13c-1.34,1.12-2.71,2.25-4,3.37-1,.88-2.07,1.78-3.1,2.62-.26.26-.26.35.07.55,3.68,2.16,7.38,4.34,11.08,6.5.35.18.66.37,1,.57a.4.4,0,0,0,.53,0c1-.9,2.07-1.81,3.08-2.69l3.68-3.15c.42-.37.42-.4-.07-.68-3.79-2.29-7.6-4.62-11.41-6.91Z"/><path class="cls-3" d="M478.32,125.75l.24-.13q6-3.47,11.93-7l.09,0c.33-.2.35-.26.07-.51-.55-.48-1.1-.9-1.65-1.39L484.68,113c-.4-.33-.79-.64-1.15-1a.43.43,0,0,0-.57,0c-1,.59-2,1.21-3,1.81-2.88,1.76-5.79,3.5-8.7,5.26l-.11.07c-.24.2-.26.26,0,.46l1.7,1.45c1.12,1,2.29,2,3.43,3l1.78,1.52A.37.37,0,0,0,478.32,125.75Z"/><path class="cls-3" d="M469,127.52v-7a.38.38,0,0,0-.09-.33c-.15-.07-.26.09-.37.13-.59.53-1.21,1.06-1.85,1.54-1.54,1.28-3.08,2.58-4.65,3.81-.42.37-.84.68-1.23,1a.56.56,0,0,1-.7.07l-3.55-2c-.26-.13-.37-.07-.37.26v1.67a.57.57,0,0,0,.29.53c2.14,1.28,4.27,2.6,6.39,3.92l5.59,3.41c.13.07.29.26.46.15s.09-.26.09-.46Z"/><path class="cls-3" d="M469.93,127.52v7c0,.33.11.42.42.2,1.83-1.12,3.7-2.25,5.55-3.37,2.16-1.3,4.27-2.64,6.43-4a.57.57,0,0,0,.37-.62c0-.51,0-1,0-1.54s-.13-.46-.48-.29c-1.17.66-2.36,1.28-3.52,1.92a.46.46,0,0,1-.57,0c-2-1.63-3.94-3.24-5.9-4.87-.59-.46-1.19-.95-1.74-1.41l-.31-.24c-.11-.09-.2,0-.22.13l0,.31Z"/><path class="cls-4" d="M295.45,304a23.44,23.44,0,1,0,23.45-23.43A23.44,23.44,0,0,0,295.45,304Z"/><path class="cls-6" d="M312.19,300.3a3.85,3.85,0,0,1,1.89.51l7.66-5.84a4,4,0,0,1-.35-1.54,3.66,3.66,0,1,1,3.66,3.63,3.38,3.38,0,0,1-2.11-.68l-7.55,5.79a3.6,3.6,0,0,1,0,3.57l7.6,5.95a3.64,3.64,0,1,1-1.56,3,3.8,3.8,0,0,1,.37-1.56l-7.73-6a3.65,3.65,0,1,1-1.85-6.78Z"/><path class="cls-7" d="M455.47,241.09a37.27,37.27,0,1,0,37.28-37.28A37.29,37.29,0,0,0,455.47,241.09Z"/><path class="cls-3" d="M495.83,259.08a16.35,16.35,0,0,1-2.53.24,18.68,18.68,0,0,1-10-2.64,1.18,1.18,0,0,0-1.15-.15l-5.9,1.52c-.4.11-.44,0-.33-.35.51-1.87,1-3.72,1.54-5.59a1.47,1.47,0,0,0-.2-1.34,18.1,18.1,0,0,1,.64-20.59c4.69-6.23,11.05-8.79,18.72-7.16,7.51,1.56,12.29,6.45,14.07,13.92A18.35,18.35,0,0,1,495.83,259.08Zm18.47-23.21a22.08,22.08,0,0,0-21.58-17.07,25.48,25.48,0,0,0-4.25.42,22.14,22.14,0,0,0-15.08,32.28,1.31,1.31,0,0,1,.11,1c-1,3.46-1.89,6.91-2.84,10.35-.15.57-.15.57.42.42q5.38-1.39,10.72-2.82a1.08,1.08,0,0,1,.79.07,21.83,21.83,0,0,0,14.55,2.09A22.13,22.13,0,0,0,514.31,235.87Z"/><path class="cls-3" d="M498.52,251.53a6.73,6.73,0,0,1-2.29-.35,22.15,22.15,0,0,1-12-8.81,12.73,12.73,0,0,1-2.58-5.17,6.18,6.18,0,0,1,2-6,3.63,3.63,0,0,1,2.91-.37,1,1,0,0,1,.53.57c.66,1.52,1.28,3,1.92,4.54a1.17,1.17,0,0,1-.09.9,7.67,7.67,0,0,1-1.34,1.83.9.9,0,0,0-.13,1.28A15.31,15.31,0,0,0,495,246.4a.83.83,0,0,0,1.14-.29c.57-.68,1.12-1.34,1.63-2a.92.92,0,0,1,1.26-.31c1.08.48,2.16,1,3.24,1.5l.7.35c1.1.53,1.08.55,1,1.74-.18,2.36-1.94,3.5-4,4.07A4.22,4.22,0,0,1,498.52,251.53Z"/><path class="cls-7" d="M33.63,246.42a47.79,47.79,0,1,0,47.8-47.78A47.79,47.79,0,0,0,33.63,246.42Z"/><path class="cls-3" d="M76.33,216.56c-6.08.15-11.76,2-17.26,4.4a50.6,50.6,0,0,0-12,7.73c-.77.62-1.76,1.17-1.59,2.42,1.85,1.81,3.77,3.55,5.55,5.39.7.75,1.08.75,1.83,0A41.07,41.07,0,0,1,76.2,225.92,42.14,42.14,0,0,1,110.3,236.8c.24.22.51.48,1.28,1.17,1.94-2.18,3.88-4.36,5.79-6.56.24-1.15-.64-1.65-1.32-2.25A52.74,52.74,0,0,0,90,216.83a31,31,0,0,0-4-.26c-1.12,0-3.37,0-4.47,0C80.18,216.56,77.65,216.54,76.33,216.56Z"/><path class="cls-3" d="M82.71,276.28c3.06-.77,5.57-2.27,7-5.22a9.27,9.27,0,1,0-10.11,5c.11,0,.31.18.46.26Z"/><path class="cls-3" d="M81.26,230.37a37.69,37.69,0,0,0-25,9.45c-.86.75-.95,1.19,0,2,1.67,1.5,3.28,3.19,4.87,4.84.53.53.81.57,1.37,0a28.06,28.06,0,0,1,21.78-7.07,27.07,27.07,0,0,1,16,7c.73.68,1.15.73,1.83,0,1.59-1.7,3.26-3.35,5-5,.62-.57.57-.84,0-1.39A37.85,37.85,0,0,0,81.26,230.37Z"/><path class="cls-3" d="M71.37,257c5.75-5.15,13.63-5.39,19.38-.59.57.44.88.62,1.43,0,1.63-1.67,3.26-3.35,5-5,.51-.46.53-.68,0-1.19-8.15-7.93-23.27-8-31.53-.07-.48.46-.31.7.09,1.08C67.56,253.11,69.46,255,71.37,257Z"/><path class="cls-4" d="M369.7,49.37A23.26,23.26,0,1,1,346.45,26.1,23.26,23.26,0,0,1,369.7,49.37Z"/><path class="cls-3" d="M357.8,52.63a15.31,15.31,0,0,0,.68-3A9.23,9.23,0,0,0,357,43.34a11.89,11.89,0,0,1-1.41-2.73,3.18,3.18,0,0,1,3-4.27c-7.75-7.31-20.87-5.73-26.53,3.3a1.8,1.8,0,0,0,.68.07c1.65,0,3.28-.09,4.91-.2.57,0,.92.2.95.66s-.29.7-.84.79l-1.26.09c-.62,0-.62,0-.42.62,1.87,5.59,3.77,11.19,5.64,16.78l.62,1.7.11-.15c1.21-3.7,2.47-7.4,3.7-11.1a.9.9,0,0,0,0-.48c-.88-2.38-1.72-4.67-2.55-7a.4.4,0,0,0-.46-.31c-.51,0-1-.07-1.5-.13a.71.71,0,0,1-.62-1,.78.78,0,0,1,.95-.44,48.19,48.19,0,0,0,5.64.15c1.15,0,2.25-.11,3.35-.18.55,0,.84.22.88.66s-.26.73-.77.79-.86.09-1.26.11c-.66,0-.66,0-.46.62,1.63,4.89,3.24,9.75,4.91,14.62.4,1.23.84,2.47,1.28,3.79l.18-.51C356.32,57.25,357,54.9,357.8,52.63Z"/><path class="cls-3" d="M348.57,55.25c-.53-1.41-1.06-2.82-1.61-4.36-1.78,5.09-3.5,10.08-5.22,15-.09.31,0,.4.26.48a17.83,17.83,0,0,0,10.13-.26c.29-.09.35-.15.26-.44Q350.45,60.46,348.57,55.25Z"/><path class="cls-3" d="M338.95,65.22c-2.8-7.66-5.59-15.3-8.41-23A17.59,17.59,0,0,0,338.95,65.22Z"/><path class="cls-3" d="M364.25,48.36a16.46,16.46,0,0,0-1.92-7.09c-.26,0-.15.2-.11.33a16.9,16.9,0,0,1-1,6.52c-1.61,4.62-3.24,9.25-4.84,13.89-.26.81-.57,1.67-.9,2.64a16.11,16.11,0,0,0,3.77-2.93A17.36,17.36,0,0,0,364.25,48.36Z"/><path class="cls-7" d="M152.73,91.14a35,35,0,1,0,35-35A35,35,0,0,0,152.73,91.14Z"/><path class="cls-3" d="M203.23,103.63c0,1.72-.46,2.22-2.27,2.22H176.1c-1.78,0-2.29-.51-2.31-2.25,0-4.62.07-9.29,0-13.92,0-1.32.4-1.61,1.61-1.54,1.76.09,1.76,0,1.54,1.72A11.68,11.68,0,1,0,200,89c-.09-.64,0-.77.62-.81,2.62-.15,2.62-.18,2.62,2.49ZM188.52,83.76a7.38,7.38,0,1,1-.09,14.75,7.38,7.38,0,0,1,.09-14.75Zm11-7.33c3.74,0,3.74,0,3.74,3.83,0,3.61,0,3.61-3.7,3.61s-3.74,0-3.74-3.7S195.79,76.43,199.49,76.43Zm3.06-4.34h-28c-3.35,0-5.06,1.74-5.06,5.09,0,4.65,0,9.31,0,14s0,9.38,0,14.09c0,3.15,1.78,4.93,4.93,4.93,9.38,0,18.78,0,28.14,0,3.26,0,5-1.74,5-5v-28C207.57,73.86,205.81,72.09,202.55,72.09Z"/><path class="cls-7" d="M343,204.87A49.88,49.88,0,1,0,392.9,155,49.9,49.9,0,0,0,343,204.87Z"/><path class="cls-3" d="M405.6,231.21a17.85,17.85,0,0,1-5.68-.92c-12.71-3.61-22.17-11.52-29.81-22-2.91-3.94-5.57-8-6.45-12.9a15.39,15.39,0,0,1,5-14.86c1.37-1.26,5.64-1.85,7.31-1a2.79,2.79,0,0,1,1.3,1.45c1.61,3.77,3.17,7.55,4.73,11.36a2.51,2.51,0,0,1-.18,2.16,16.21,16.21,0,0,1-3.39,4.51,2.32,2.32,0,0,0-.31,3.21,37.61,37.61,0,0,0,18.76,16.05,2.2,2.2,0,0,0,2.91-.66c1.32-1.7,2.8-3.32,4.05-5.06a2.25,2.25,0,0,1,3.1-.84c2.69,1.23,5.35,2.53,8,3.74.62.33,1.21.59,1.78.88,2.73,1.34,2.66,1.37,2.49,4.38-.48,5.84-4.87,8.72-10.06,10.15A12.75,12.75,0,0,1,405.6,231.21Z"/><path class="cls-3" d="M410.69,186.07a21.15,21.15,0,0,1,4.87,6.83,23.56,23.56,0,0,1,1.94,6.43c.09.46.31.95-.13,1.32-1.21.09-2.44.13-3.66.26-.46.07-.62-.07-.66-.53a19.16,19.16,0,0,0-5.13-10.92A19.85,19.85,0,0,0,392.37,183a6.85,6.85,0,0,0-.77,0l-.13-4.14c.26-.46.75-.37,1.17-.4a23.67,23.67,0,0,1,7.44,1,21.47,21.47,0,0,1,5.64,2.49,10.91,10.91,0,0,1,1.56,1.14l1.59,1.32C409.3,184.9,410.23,185.67,410.69,186.07Z"/><path class="cls-3" d="M404.74,189.52a18,18,0,0,1,6.12,11c.07.53-.07.73-.62.75-1.08,0-2.14.15-3.21.26-.35,0-.46,0-.53-.42a13,13,0,0,0-5.61-9.12,12.75,12.75,0,0,0-7.88-2.36c-.46,0-.59-.09-.64-.57-.07-1.1-.15-2.18-.26-3.28,0-.4,0-.51.42-.51A17.72,17.72,0,0,1,404.74,189.52Z"/><path class="cls-3" d="M400.21,202a6.79,6.79,0,0,0-6.76-6.08c-.35,0-.48-.07-.53-.44-.07-1.08-.18-2.18-.29-3.28,0-.33,0-.42.37-.46a11.28,11.28,0,0,1,11.3,9.56c0,.31-.09.35-.35.4C402.72,201.81,401.51,201.92,400.21,202Z"/><path class="cls-7" d="M489,169.13a24.94,24.94,0,1,0,24.93-24.93A24.92,24.92,0,0,0,489,169.13Z"/><path class="cls-6" d="M503.12,179.53v-15h4v15Zm0-17.06v-3.7h4v3.7Z"/><path class="cls-6" d="M524.8,179.53h-4v-7.68a11.56,11.56,0,0,0-.26-3.15,2.31,2.31,0,0,0-.81-1.1,2.39,2.39,0,0,0-1.39-.4,3.32,3.32,0,0,0-1.85.55,2.78,2.78,0,0,0-1.12,1.52,13.19,13.19,0,0,0-.31,3.43v6.83h-4v-15h3.7v2.22a6,6,0,0,1,5-2.55,6.47,6.47,0,0,1,2.4.46,3.93,3.93,0,0,1,1.65,1.23,5.11,5.11,0,0,1,.79,1.67,13.25,13.25,0,0,1,.2,2.64Z"/><path class="cls-1" d="M200.4,172.7a43.4,43.4,0,1,0,43.4-43.4A43.39,43.39,0,0,0,200.4,172.7Z"/><path class="cls-6" d="M266.78,164.31a2.9,2.9,0,0,1,2.91,2.88v13.94a2.9,2.9,0,0,1-5.79,0V167.2A2.88,2.88,0,0,1,266.78,164.31Z"/><path class="cls-6" d="M221.58,164.31a2.86,2.86,0,0,1,2.84,2.88v13.94a2.87,2.87,0,1,1-5.75,0V167.2A2.87,2.87,0,0,1,221.58,164.31Z"/><path class="cls-6" d="M261.32,164.31v25.81a4.36,4.36,0,0,1-4.34,4.34h-4.6v7.33a2.91,2.91,0,0,1-5.81,0v-7.33h-4.89v7.33a2.88,2.88,0,1,1-5.77,0v-7.33h-4.62a4.33,4.33,0,0,1-4.32-4.34V164.31Z"/><path class="cls-6" d="M235.6,155a1.62,1.62,0,1,0-1.59-1.63A1.63,1.63,0,0,0,235.6,155Zm17.33,0a1.62,1.62,0,1,0,0-3.24,1.62,1.62,0,1,0,0,3.24Zm-17.2-8.19-3.1-5.73.68-.33,3.06,5.75a17.18,17.18,0,0,1,15.15-.18l3-5.57.66.33-3,5.55a17,17,0,0,1,9,15H227.06A17.22,17.22,0,0,1,235.74,146.78Z"/><path class="cls-1" d="M273.82,246a30.28,30.28,0,1,0,30.28-30.3A30.25,30.25,0,0,0,273.82,246Z"/><path class="cls-3" d="M298.2,233.45a11.25,11.25,0,0,1,3.79.75,21.81,21.81,0,0,0,2.22.73,6.57,6.57,0,0,0,4-.26,15.93,15.93,0,0,1,2.84-.95A9.08,9.08,0,0,1,319,235.5a9.74,9.74,0,0,1,1.76,1.67c.2.24.2.29-.09.46a8.2,8.2,0,0,0-4.12,6.52,8.59,8.59,0,0,0,2.42,7,8.16,8.16,0,0,0,2.84,1.94c.29.11.31.15.2.46a29.64,29.64,0,0,1-4.8,7.62,9.32,9.32,0,0,1-2.36,2,4.72,4.72,0,0,1-4.4.15c-.62-.26-1.21-.55-1.87-.81a8.82,8.82,0,0,0-6.06.29c-.55.22-1.06.42-1.56.64a5.12,5.12,0,0,1-5.26-1,12.43,12.43,0,0,1-2.49-2.66,26,26,0,0,1-3.88-7.38,23.43,23.43,0,0,1-1.17-5.86,13.9,13.9,0,0,1,.95-6.45,10.7,10.7,0,0,1,7.13-6.34A7.92,7.92,0,0,1,298.2,233.45Z"/><path class="cls-3" d="M312.64,225.08a8.62,8.62,0,0,1-1.59,5,8.13,8.13,0,0,1-4.45,3.37,5.2,5.2,0,0,1-1.76.31c-.24,0-.33-.11-.35-.35a6.86,6.86,0,0,1,.75-3.88,9.31,9.31,0,0,1,5.55-4.93,8.72,8.72,0,0,1,1.54-.35c.22-.07.29.11.29.26A2,2,0,0,1,312.64,225.08Z"/><path class="cls-1" d="M155.22,250.45a29.95,29.95,0,1,0,29.92-29.92A29.93,29.93,0,0,0,155.22,250.45Z"/><path class="cls-2" d="M194,241v6h-5.15V258.4a29.35,29.35,0,0,0,.15,4.05,1.56,1.56,0,0,0,.66,1,2.19,2.19,0,0,0,1.28.37,9.47,9.47,0,0,0,3-.73l.64,5.81a14.58,14.58,0,0,1-5.92,1.15,10.34,10.34,0,0,1-3.7-.66,6.12,6.12,0,0,1-2.36-1.76,6.77,6.77,0,0,1-1.08-3,34.59,34.59,0,0,1-.22-5.28V246.93h-3.46v-6h3.46v-5.68l7.53-4.38V241Z"/><path class="cls-7" d="M36.56,141.83A34.11,34.11,0,1,0,70.67,107.7,34.11,34.11,0,0,0,36.56,141.83Z"/><path class="cls-3" d="M85.91,128a7.12,7.12,0,0,1,7.2,7.2A7.2,7.2,0,0,1,86,142.34,7.17,7.17,0,1,1,85.91,128Z"/><path class="cls-3" d="M85.91,155.64H79.35c-.51,0-1.12.18-1.3-.64a9.5,9.5,0,0,1,3.41-9.49,7.21,7.21,0,0,1,7.86-.62,8,8,0,0,1,4.49,7.31c.07,4.16.46,3.37-3.3,3.44C89,155.66,87.45,155.64,85.91,155.64Z"/><path class="cls-3" d="M69.13,130.8a6.43,6.43,0,1,1,.07,12.86,6.43,6.43,0,1,1-.07-12.86Z"/><path class="cls-3" d="M69,155.64h-5.7c-.57,0-1.12.07-1.32-.68a8.38,8.38,0,0,1,4.76-9.31,7.18,7.18,0,0,1,9.42,5.73c.51,4.27.51,4.27-3.66,4.27Z"/><path class="cls-3" d="M59.73,139.08a5.81,5.81,0,0,1-5.84,5.79,5.8,5.8,0,1,1,0-11.6A5.73,5.73,0,0,1,59.73,139.08Z"/><path class="cls-3" d="M54,155.64c-1.7,0-3.37,0-5.11,0-1.08,0-1.37-.37-1.37-1.43,0-2.14.22-4.16,1.72-5.81a6,6,0,0,1,6.58-1.83A6.25,6.25,0,0,1,60.25,152c.48,3.57.4,3.59-3.17,3.59Z"/><path class="cls-7" d="M209.28,306.42a36.32,36.32,0,1,0,36.29-36.29A36.32,36.32,0,0,0,209.28,306.42Z"/><path class="cls-3" d="M228.38,284.8s10.39-6.69,20.3.81l-4.91,17.86a19.66,19.66,0,0,0-20.57-.42Z"/><path class="cls-3" d="M254.7,287.82s8.63,7,20.68.86l-5.17,17.81s-12,7.16-20.59-1.17Z"/><path class="cls-8" d="M221.59,306.34s11.74-6.65,20.74,1.17l-5.55,18.08s-7.31-7.11-20.19-1.32Z"/><path class="cls-3" d="M247.8,309s7.42,6.21,19.84,2.18l-5,17.44s-13.17,6.1-19.69-2Z"/><path class="cls-6" d="M325.37,350.46a21.88,21.88,0,1,1-21.91-21.87A21.89,21.89,0,0,1,325.37,350.46Z"/><path class="cls-5" d="M297.76,342.07l-.2.11a6.21,6.21,0,0,0-.86.64l-.35.29-.11.11,0,0-.26.24-.18.18-.13.13-.24.24c-.13.18-.26.33-.42.51l-.2.29-.11,0c.07.11,0,.13,0,.18l-.15.26,0,0,0,0,0,.15a2.6,2.6,0,0,0-.35.64l-.11.26-.15.4-.24.68-.13.53-.11.62,0,.42a2,2,0,0,1,0,.53v.2c0,.29,0,.55,0,.88s.07.53.09.84a4.64,4.64,0,0,0,.22.84l.13.42v.09l.29.57.33.62a2.87,2.87,0,0,0,.33.4l.29.33.09.07a2.64,2.64,0,0,0,.46.37l.11.09.24.11.22.13c.13.09.26.22.46.18h.18c.26,0,.35-.26.42-.51l.13-.42.09-.4.09-.35a.79.79,0,0,0,0-.55l-.15-.22-.13-.15a1.73,1.73,0,0,1-.31-.44l0-.07v0a2.78,2.78,0,0,1-.29-.57l0,0a4.16,4.16,0,0,1-.24-1,5.73,5.73,0,0,1,0-1.06,6.67,6.67,0,0,1,0-.68,7.87,7.87,0,0,1,.24-1.17l.33-.88a5.74,5.74,0,0,1,.53-.95l.24-.4.26-.29a4.46,4.46,0,0,1,.62-.66,2.47,2.47,0,0,0,.44-.4,4.65,4.65,0,0,1,.59-.4l.46-.29.07,0,.18-.09.62-.26.37-.11a3.36,3.36,0,0,1,.64-.15l.51-.11.26,0a5.45,5.45,0,0,1,.79-.09H304a1.16,1.16,0,0,0,.29,0l.07,0h.11l.35.07.22,0h.07l.09,0,.29,0,.09,0,.31.07.11,0,.48.2a8.31,8.31,0,0,1,1,.51,2.44,2.44,0,0,1,.51.42,2.34,2.34,0,0,1,.44.37,3.91,3.91,0,0,1,.7,1,1.7,1.7,0,0,1,.26.53,4.38,4.38,0,0,1,.29.75,3.73,3.73,0,0,1,.15.84,9,9,0,0,1,.07,1.1c0,.24,0,.51,0,.75a8.21,8.21,0,0,1-.09,1v.11c-.07.13,0,.26-.09.35a9.14,9.14,0,0,1-.24,1.06l-.2.64c-.11.29-.22.55-.33.86l-.13.29a7.2,7.2,0,0,1-.37.68c-.15.22-.35.46-.53.7l-.44.44a1.54,1.54,0,0,0-.35.29,5.3,5.3,0,0,1-.92.48c-.26.07-.55.11-.84.15a2.91,2.91,0,0,1-.62,0l-.2,0-.18,0a.81.81,0,0,1-.33-.18,1.09,1.09,0,0,1-.53-.31,2.56,2.56,0,0,1-.4-.44l-.15-.24-.15-.37a2.63,2.63,0,0,1-.09-.73,2.5,2.5,0,0,1,.13-.7,8.45,8.45,0,0,1,.24-.88l.11-.44a3.14,3.14,0,0,0,.2-.59l.13-.51.09-.26.22-.77c.09-.26.13-.57.2-.84a4.2,4.2,0,0,0,.09-1,2.7,2.7,0,0,0-.18-.84,1.88,1.88,0,0,0-.51-.81l-.29-.2a1.29,1.29,0,0,0-.4-.18,2.22,2.22,0,0,0-.88-.09,2.66,2.66,0,0,0-1,.31l-.24.15a3.42,3.42,0,0,0-.55.57l-.29.35a5,5,0,0,0-.53,1.41,3.37,3.37,0,0,0-.09.84,4.25,4.25,0,0,0,0,.75l.09.77.31,1,0,0v.18l0,.18,0,.26,0,.11-.07.24,0,.15,0,0v.13l-.07.13,0,.13-.11.4,0,.13v0l0,.09,0,.13,0,.09v.15l0,0,0,.11,0,.2,0,.07,0,.18v0l-.13.64-.15.57-.11.48-.09.33,0,.15c-.09.24-.11.48-.18.7l-.18.73-.18.81-.18.7-.07.4a3,3,0,0,0-.09.64,2.32,2.32,0,0,0-.07.68l0,.7a5.76,5.76,0,0,0,0,.62l0,.26-.09,0-.33-.18c-.22-.07-.44-.22-.68-.31l-.29-.18-.51-.31-.33-.18a2,2,0,0,1-.26-.22,2.68,2.68,0,0,0-.44-.31l-.51-.4a4.45,4.45,0,0,1-.59-.53l-.26-.24-.22-.2-.07,0v0l-.22-.22-.18-.22v0a2.34,2.34,0,0,1-.33-.33,1.44,1.44,0,0,1-.29-.35l-.11-.09-.15-.24-.24-.26,0-.11,0-.07a1.19,1.19,0,0,1-.2-.26l0,0,0-.07-.18-.24-.15-.24,0-.07-.15-.26-.2-.31-.09-.18,0-.07-.2-.42,0-.09,0-.11-.09-.15,0-.09,0-.09-.11-.26,0-.09,0,0,0-.07v0l-.13-.24,0,0-.07-.18v0l0-.07,0-.09,0,0,0-.15,0-.07,0-.13,0-.07,0-.07,0-.09,0-.13,0-.07-.07-.22,0-.11,0-.13,0-.2,0-.29,0-.11v-.11l0-.07,0-.18,0-.11-.09-.46v-.09l0-.09,0-.15v-.15l0-.09v-.15l0,0,0-.18,0,0,0-.07v-.51l0-.7v-.13a1.44,1.44,0,0,0,0-.44l0-.31v-.29l0-.11v0l0-.09,0-.2,0-.24,0-.13c0-.42.13-.81.2-1.19a3.27,3.27,0,0,1,.22-.86l0-.22L289,346a1.27,1.27,0,0,1,.15-.46,2.93,2.93,0,0,1,.29-.77c.07-.2.18-.37.22-.55l.33-.7a5.18,5.18,0,0,0,.29-.51l.29-.51.37-.53c.11-.22.31-.42.42-.62l.13-.2.24-.24c.13-.18.31-.35.46-.53a2.83,2.83,0,0,1,.35-.37,7,7,0,0,1,.57-.57,2.47,2.47,0,0,1,.46-.4,6.94,6.94,0,0,1,.62-.55,8.18,8.18,0,0,1,.7-.51l.15-.07a3.71,3.71,0,0,1,.68-.46l.35-.2c.22-.13.46-.24.68-.35l.53-.26a1.55,1.55,0,0,1,.51-.18l.51-.22.51-.2.66-.15.57-.18a2.4,2.4,0,0,1,.57-.11l.46-.07.31,0,.26,0,1-.07h.55l.57,0c.24,0,.48,0,.73.07h.09l.64,0,.9.15.64.11.42.13a3.37,3.37,0,0,0,.64.15,1.68,1.68,0,0,1,.37.15,2.31,2.31,0,0,0,.37.09l.13.11.11,0,.48.15a1.56,1.56,0,0,1,.4.18l.22.11a4.54,4.54,0,0,0,.57.26l.09.07c.31.18.62.35.92.55a5.37,5.37,0,0,1,.51.35c.31.22.59.42.9.66a6.68,6.68,0,0,1,.57.51,4,4,0,0,1,.44.42l.4.37a6.59,6.59,0,0,1,.48.57,4.6,4.6,0,0,1,.44.48,2.81,2.81,0,0,1,.31.46,4.75,4.75,0,0,1,.59.84c.15.31.33.53.48.81a3.93,3.93,0,0,1,.26.53,4,4,0,0,1,.29.62l.26.62.09.24a2.57,2.57,0,0,1,.22.57l.2.59.07.22c.09.44.18.88.26,1.28a7.19,7.19,0,0,0,.11.77l0,.62,0,.46c0,.4,0,.75,0,1.15s0,.57,0,.84l0,.53a3.78,3.78,0,0,1-.09.53,2,2,0,0,1-.09.51l-.13.66a1.12,1.12,0,0,0-.07.37,1.63,1.63,0,0,0-.15.46l-.24.68-.2.51a1.49,1.49,0,0,1-.18.42,2.15,2.15,0,0,0-.18.48l-.24.48-.15.24-.13.24-.09.15c-.11.2-.26.42-.35.62l-.29.4a1.2,1.2,0,0,0-.24.4l0,0,0,0c-.18.24-.31.46-.48.66l-.18.11a3.93,3.93,0,0,1-.48.55l-.15.22-.07,0h0l0,0-.11.15-.2.2-.53.44a2.69,2.69,0,0,1-.55.44,3.1,3.1,0,0,1-.51.4,1.15,1.15,0,0,1-.37.26l-.13.07-.13.15-1.06.59c-.4.2-.75.37-1.15.53l-.7.31c-.22.09-.46.13-.7.22l-.13.07c-.29,0-.57.15-.84.2a7.89,7.89,0,0,1-1,.2l-.84.13a6,6,0,0,1-.88.09c-.37,0-.75,0-1.1,0h-.11l-.24,0h-.07a3.79,3.79,0,0,1-.7,0l-.51,0-.44-.09-.46-.07a1.31,1.31,0,0,1-.37-.09l-.31-.07-.59-.13-.09-.07-.07-.07,0-.07,0-.07h0l.2-.31c.15-.26.31-.53.44-.81a9.42,9.42,0,0,0,.42-.95,3.05,3.05,0,0,0,.31-.92l0-.09.11-.4.11-.33.13-.57.15-.62.18-.62a4.36,4.36,0,0,0,.13-.57l.07-.31.09-.35a.42.42,0,0,0,.07-.26l.26.35.11.11a4.26,4.26,0,0,0,1,.77l.51.24.26.09a2.73,2.73,0,0,0,.73.2,2.15,2.15,0,0,0,.53,0c.26,0,.55,0,.84,0h0c.22,0,.44,0,.7-.07a3.45,3.45,0,0,0,.64-.18,5.8,5.8,0,0,0,.66-.2,4.48,4.48,0,0,1,.48-.2c.24-.13.44-.22.64-.35a4.75,4.75,0,0,0,.84-.59,4.63,4.63,0,0,0,.9-.84l.2-.2.22-.29,0,0,0-.07.33-.46,0-.07.22-.33,0-.09.2-.31,0,0c.11-.24.22-.42.31-.66l0,0,0-.09.22-.57h0l.09,0,0-.13c.09-.26.15-.46.22-.7a4.89,4.89,0,0,0,.2-.81l0-.15.07-.22v-.15l0-.07,0,0h0v0l0-.09,0-.33V351l0-.09v-.07l0-.09v-.11l0-.24v0l0-.13V350c0-.37.07-.73.07-1.08s0-.46-.07-.64-.07-.59-.09-.81l-.09-.4,0-.11v0l0-.11a3.24,3.24,0,0,0-.18-.55l0-.15L313,346l-.11-.24a7,7,0,0,0-.35-.7,6,6,0,0,0-.51-.79,4,4,0,0,0-.4-.55l-.18-.2-.11-.09,0,0-.46-.48-.13-.11c-.15-.11-.33-.31-.48-.42s-.33-.24-.48-.33a3.08,3.08,0,0,0-.57-.35l-.09,0a8.26,8.26,0,0,0-.88-.46c-.26-.11-.57-.22-.9-.33s-.51-.13-.79-.22-.51-.11-.77-.15a2.59,2.59,0,0,1-.55-.09H305l-.24,0-.4,0h-1.08l-.22,0H303l-.26,0-.13,0h-.2l-.22,0-.2,0h-.15l-.24,0h-.15l-.09,0-.59.15h-.15l-.07,0h0l-.11,0h0l0,0-.13,0a7,7,0,0,1-.88.31c-.13,0-.22.13-.35.13l-.48.26-.51.26-.07,0Z"/><path class="cls-7" d="M397.7,115.38A34.47,34.47,0,1,1,363.24,80.9,34.47,34.47,0,0,1,397.7,115.38Z"/><path class="cls-2" d="M353.2,105.59H358v-2.47a16.74,16.74,0,0,1,.86-6.19,7.18,7.18,0,0,1,3.28-3.35,12.7,12.7,0,0,1,6-1.28,24.75,24.75,0,0,1,7.27,1.1l-1.17,6.08a17.19,17.19,0,0,0-4-.51,3.62,3.62,0,0,0-2.73.88,5.35,5.35,0,0,0-.81,3.41v2.31h6.52v6.83h-6.52v26H358v-26H353.2Z"/><path class="cls-4" d="M83.24,85.7A22.75,22.75,0,1,0,106,63,22.79,22.79,0,0,0,83.24,85.7Z"/><path class="cls-1" d="M426.24,394.43A15.41,15.41,0,1,0,441.65,379,15.41,15.41,0,0,0,426.24,394.43Z"/><path class="cls-7" d="M340.43,337.74a19.08,19.08,0,1,0,19.07-19A19.11,19.11,0,0,0,340.43,337.74Z"/><path class="cls-7" d="M226.2,239a17,17,0,1,0,17-17A17,17,0,0,0,226.2,239Z"/><path class="cls-7" d="M185.56,347.18a16.26,16.26,0,1,0,16.27-16.25A16.3,16.3,0,0,0,185.56,347.18Z"/><path class="cls-7" d="M79.24,313.05A11.37,11.37,0,1,0,90.6,301.69,11.4,11.4,0,0,0,79.24,313.05Z"/><path class="cls-4" d="M16.52,188.8a18,18,0,1,0,18.08-18A18.05,18.05,0,0,0,16.52,188.8Z"/><path class="cls-4" d="M179.21,203a11.21,11.21,0,1,0,11.23-11.21A11.23,11.23,0,0,0,179.21,203Z"/><path class="cls-4" d="M182.77,141a8.55,8.55,0,1,0,8.52-8.59A8.57,8.57,0,0,0,182.77,141Z"/><path class="cls-4" d="M134,131.41a13.83,13.83,0,1,0,13.85-13.85A13.81,13.81,0,0,0,134,131.41Z"/><path class="cls-7" d="M233.4,109.7a13.18,13.18,0,1,0,13.21-13.17A13.15,13.15,0,0,0,233.4,109.7Z"/><path class="cls-4" d="M271.63,118.62a18.94,18.94,0,1,0,18.94-18.94A18.93,18.93,0,0,0,271.63,118.62Z"/><path class="cls-4" d="M189.39,39.88a12.1,12.1,0,1,0,12.07-12.13A12.11,12.11,0,0,0,189.39,39.88Z"/><path class="cls-1" d="M385.74,48.29a10.55,10.55,0,1,0,10.53-10.57A10.54,10.54,0,0,0,385.74,48.29Z"/><path class="cls-1" d="M448.92,169.55a12.39,12.39,0,1,0,12.37-12.4A12.39,12.39,0,0,0,448.92,169.55Z"/><path class="cls-4" d="M300.82,165.19a18.33,18.33,0,1,0,18.32-18.36A18.31,18.31,0,0,0,300.82,165.19Z"/><path class="cls-1" d="M401.82,141.28a9.49,9.49,0,1,0,9.49-9.47A9.47,9.47,0,0,0,401.82,141.28Z"/><path class="cls-1" d="M412.12,61.49a16.32,16.32,0,1,1-3.18.31A16.28,16.28,0,0,1,412.12,61.49Z"/><path class="cls-4" d="M142.23,222.4a8.73,8.73,0,1,0,8.72-8.72A8.73,8.73,0,0,0,142.23,222.4Z"/><path class="cls-4" d="M339.74,264.79a9.37,9.37,0,1,0,9.38-9.36A9.38,9.38,0,0,0,339.74,264.79Z"/><path class="cls-4" d="M299.69,200.53a9.37,9.37,0,1,0,9.38-9.38A9.37,9.37,0,0,0,299.69,200.53Z"/><path class="cls-1" d="M446.7,299.16a17.77,17.77,0,1,0,17.77-17.77A17.74,17.74,0,0,0,446.7,299.16Z"/><path class="cls-4" d="M422.49,262.14a9.35,9.35,0,1,0,9.34-9.36A9.33,9.33,0,0,0,422.49,262.14Z"/><path class="cls-4" d="M467.36,413.86a8.58,8.58,0,1,0,8.57-8.54A8.6,8.6,0,0,0,467.36,413.86Z"/></svg>