<svg id="Layer_1" data-name="Layer 1" xmlns="http://www.w3.org/2000/svg" xmlns:xlink="http://www.w3.org/1999/xlink" viewBox="0 0 250 250"><defs><style>.cls-1{fill:none;}.cls-2{fill:#fff;}.cls-3{clip-path:url(#clip-path);}.cls-4,.cls-6{fill:#699f63;}.cls-5{fill:#333;}.cls-5,.cls-6{fill-rule:evenodd;}.cls-7{fill:url(#linear-gradient);}.cls-8{clip-path:url(#clip-path-3);}.cls-9{isolation:isolate;}.cls-10{clip-path:url(#clip-path-4);}.cls-11{fill:url(#linear-gradient-2);}.cls-12{fill:url(#linear-gradient-3);}.cls-13{fill:url(#linear-gradient-4);}.cls-14{fill:url(#linear-gradient-5);}</style><clipPath id="clip-path"><rect class="cls-1" width="250" height="250"/></clipPath><linearGradient id="linear-gradient" x1="171.12" y1="156.88" x2="151.27" y2="116.39" gradientTransform="matrix(1, 0, 0, -1, -67.06, 252.96)" gradientUnits="userSpaceOnUse"><stop offset="0" stop-color="#41873f"/><stop offset="0.33" stop-color="#418b3d"/><stop offset="0.64" stop-color="#419637"/><stop offset="0.93" stop-color="#3fa92d"/><stop offset="1" stop-color="#3fae2a"/></linearGradient><clipPath id="clip-path-3"><path class="cls-1" d="M96.45,86.64a2.69,2.69,0,0,0-2.66,0l-22,12.67a2.6,2.6,0,0,0-1.3,2.29V127a2.72,2.72,0,0,0,1.3,2.29l22,12.67a2.69,2.69,0,0,0,2.66,0l22-12.67a2.6,2.6,0,0,0,1.3-2.29V101.61a2.72,2.72,0,0,0-1.3-2.29Z"/></clipPath><clipPath id="clip-path-4"><rect class="cls-1" x="70.5" y="86" width="49.25" height="56.5"/></clipPath><linearGradient id="linear-gradient-2" x1="159.35" y1="135.58" x2="215.04" y2="176.73" gradientTransform="matrix(1, 0, 0, -1, -67.54, 252.88)" gradientUnits="userSpaceOnUse"><stop offset="0" stop-color="#41873f"/><stop offset="0.14" stop-color="#41873f"/><stop offset="0.4" stop-color="#54a044"/><stop offset="0.71" stop-color="#66b848"/><stop offset="0.91" stop-color="#6cc04a"/><stop offset="1" stop-color="#6cc04a"/></linearGradient><linearGradient id="linear-gradient-3" x1="138.04" y1="138.57" x2="188.84" y2="138.57" gradientTransform="matrix(1, 0, 0, -1, -68.31, 252.92)" gradientUnits="userSpaceOnUse"><stop offset="0" stop-color="#6cc04a"/><stop offset="0.09" stop-color="#6cc04a"/><stop offset="0.29" stop-color="#66b848"/><stop offset="0.6" stop-color="#54a044"/><stop offset="0.86" stop-color="#41873f"/><stop offset="1" stop-color="#41873f"/></linearGradient><linearGradient id="linear-gradient-4" x1="159.72" y1="79.76" x2="210.52" y2="79.76" gradientTransform="matrix(1, 0, 0, -1, -89.99, 215.07)" xlink:href="#linear-gradient-3"/><linearGradient id="linear-gradient-5" x1="217.88" y1="120.21" x2="186.55" y2="56.3" gradientTransform="matrix(1, 0, 0, -1, -89.99, 215.07)" xlink:href="#linear-gradient"/></defs><title>logo-node</title><rect class="cls-2" width="250" height="250"/><g class="cls-3"><path class="cls-4" d="M124,195.25a4.57,4.57,0,0,1-2.19-.57l-6.93-4.12c-1-.57-.52-.78-.21-.89a12.63,12.63,0,0,0,3.13-1.41.48.48,0,0,1,.52.05l5.32,3.18a.66.66,0,0,0,.63,0l20.8-12a.6.6,0,0,0,.31-.57v-24a.6.6,0,0,0-.31-.57l-20.8-12a.66.66,0,0,0-.63,0l-20.8,12a.65.65,0,0,0-.31.57v24a.65.65,0,0,0,.31.57l5.68,3.28c3.08,1.56,5-.26,5-2.09V156.93a.63.63,0,0,1,.63-.63h2.66a.63.63,0,0,1,.63.63v23.72c0,4.12-2.24,6.52-6.15,6.52-1.2,0-2.14,0-4.8-1.3L101,182.74a4.4,4.4,0,0,1-2.19-3.81v-24a4.4,4.4,0,0,1,2.19-3.81l20.8-12a4.65,4.65,0,0,1,4.38,0l20.8,12a4.4,4.4,0,0,1,2.19,3.81v24a4.4,4.4,0,0,1-2.19,3.81l-20.8,12A5.34,5.34,0,0,1,124,195.25Z"/><path class="cls-4" d="M130.45,178.72c-9.12,0-11-4.17-11-7.72a.63.63,0,0,1,.63-.63h2.71a.54.54,0,0,1,.57.52c.42,2.76,1.62,4.12,7.14,4.12,4.38,0,6.26-1,6.26-3.34,0-1.36-.52-2.35-7.35-3-5.68-.57-9.23-1.82-9.23-6.36,0-4.22,3.55-6.73,9.49-6.73,6.67,0,10,2.29,10.38,7.3a.84.84,0,0,1-.16.47.64.64,0,0,1-.42.21h-2.71a.61.61,0,0,1-.57-.47c-.63-2.87-2.24-3.81-6.52-3.81-4.8,0-5.37,1.67-5.37,2.92,0,1.51.68,2,7.14,2.82s9.44,2,9.44,6.52S137.07,178.72,130.45,178.72Z"/><path class="cls-4" d="M155.79,153.23h.68a.61.61,0,0,0,.68-.63c0-.63-.42-.63-.68-.63h-.73v1.25Zm-.83-2h1.56c.52,0,1.56,0,1.56,1.2a1,1,0,0,1-.83,1.09c.63.05.68.47.73,1a6.29,6.29,0,0,0,.21,1.2h-.94c0-.21-.16-1.36-.16-1.41-.05-.26-.16-.37-.47-.37h-.78v1.82H155Zm-1.88,2.24a3.37,3.37,0,0,0,3.34,3.39,3.42,3.42,0,0,0,3.39-3.39,3.36,3.36,0,0,0-6.73,0Zm7.4,0a4,4,0,1,1-4-4A4.05,4.05,0,0,1,160.48,153.49Z"/><path class="cls-5" d="M59.48,101.24a2.65,2.65,0,0,0-1.36-2.29L36.07,86.17a3.21,3.21,0,0,0-1.2-.36h-.21a2.48,2.48,0,0,0-1.2.36L11.36,98.89A2.65,2.65,0,0,0,10,101.19l.05,34.21a1.3,1.3,0,0,0,.68,1.15,1.18,1.18,0,0,0,1.3,0L25.17,129a2.65,2.65,0,0,0,1.36-2.29v-16a2.65,2.65,0,0,1,1.36-2.29l5.58-3.23a2.53,2.53,0,0,1,1.36-.36,2.24,2.24,0,0,1,1.3.36l5.58,3.23a2.65,2.65,0,0,1,1.36,2.29v16.06a2.65,2.65,0,0,0,1.36,2.29l13.14,7.51a1.27,1.27,0,0,0,1.36,0,1.3,1.3,0,0,0,.68-1.15Z"/><path class="cls-5" d="M163.72,119a.6.6,0,0,1-.31.57L155.84,124a.77.77,0,0,1-.68,0l-7.56-4.38a.65.65,0,0,1-.31-.57v-8.76a.6.6,0,0,1,.31-.57l7.56-4.38a.77.77,0,0,1,.68,0l7.56,4.38a.65.65,0,0,1,.31.57Zm2-64.87a1.44,1.44,0,0,0-1.3,0,1.36,1.36,0,0,0-.68,1.15V89.2a.94.94,0,0,1-1.41.83l-5.53-3.18a2.69,2.69,0,0,0-2.66,0L132.07,99.62a2.65,2.65,0,0,0-1.36,2.29v25.5a2.65,2.65,0,0,0,1.36,2.29l22.11,12.77a2.69,2.69,0,0,0,2.66,0l22.11-12.77a2.65,2.65,0,0,0,1.36-2.29V63.86a2.67,2.67,0,0,0-1.36-2.35Z"/><path class="cls-5" d="M239.32,110.05a2.6,2.6,0,0,0,1.3-2.29v-6.2a2.72,2.72,0,0,0-1.3-2.29l-22-12.72a2.69,2.69,0,0,0-2.66,0L192.6,99.31a2.65,2.65,0,0,0-1.36,2.29v25.5a2.65,2.65,0,0,0,1.36,2.29l22,12.51a2.59,2.59,0,0,0,2.61,0l13.3-7.4a1.31,1.31,0,0,0,0-2.29l-22.21-12.77a1.36,1.36,0,0,1-.68-1.15v-8a1.3,1.3,0,0,1,.68-1.15l6.93-4a1.27,1.27,0,0,1,1.36,0l6.93,4a1.36,1.36,0,0,1,.68,1.15v6.31a1.3,1.3,0,0,0,.68,1.15,1.27,1.27,0,0,0,1.36,0Z"/><path class="cls-6" d="M215.7,108.85a.47.47,0,0,1,.52,0l4.22,2.45a.55.55,0,0,1,.26.47v4.9a.55.55,0,0,1-.26.47l-4.22,2.45a.47.47,0,0,1-.52,0l-4.22-2.45a.55.55,0,0,1-.26-.47v-4.9a.55.55,0,0,1,.26-.47Z"/><path class="cls-7" d="M96.45,86.64a2.69,2.69,0,0,0-2.66,0l-22,12.67a2.6,2.6,0,0,0-1.3,2.29V127a2.72,2.72,0,0,0,1.3,2.29l22,12.67a2.69,2.69,0,0,0,2.66,0l22-12.67a2.6,2.6,0,0,0,1.3-2.29V101.61a2.72,2.72,0,0,0-1.3-2.29Z"/></g><g class="cls-3"><g class="cls-8"><g class="cls-9"><g class="cls-10"><path class="cls-11" d="M118.46,99.31l-22-12.67a3.62,3.62,0,0,0-.68-.26L71.06,128.72a2.74,2.74,0,0,0,.73.63L93.85,142a2.54,2.54,0,0,0,2,.26l23.2-42.44A5.52,5.52,0,0,0,118.46,99.31Z"/></g></g></g></g><g class="cls-3"><g class="cls-8"><g class="cls-9"><g class="cls-10"><path class="cls-12" d="M118.51,129.29a3,3,0,0,0,1.3-1.67L95.67,86.38a2.65,2.65,0,0,0-1.88.31L71.89,99.31l23.62,43.07a3.64,3.64,0,0,0,1-.31Z"/><path class="cls-13" d="M118.51,129.29,96.5,142a3.15,3.15,0,0,1-1,.31l.42.78,24.4-14.13v-.31l-.63-1A2.42,2.42,0,0,1,118.51,129.29Z"/><path class="cls-14" d="M118.51,129.29,96.5,142a3.15,3.15,0,0,1-1,.31l.42.78,24.4-14.13v-.31l-.63-1A2.42,2.42,0,0,1,118.51,129.29Z"/></g></g></g></g></svg>