<svg id="Layer_1" data-name="Layer 1" xmlns="http://www.w3.org/2000/svg" xmlns:xlink="http://www.w3.org/1999/xlink" viewBox="0 0 250 250"><defs><style>.cls-1{fill:none;}.cls-2{fill:#fff;}.cls-3{clip-path:url(#clip-path);}.cls-4{fill:#a179dc;}.cls-5{fill:#280068;}.cls-6{fill:#390091;}</style><clipPath id="clip-path"><rect class="cls-1" width="250" height="250"/></clipPath></defs><title>logo-c</title><rect class="cls-2" width="250" height="250"/><g class="cls-3"><path class="cls-4" d="M204.41,88.34a15.72,15.72,0,0,0-1.94-7.91,15.12,15.12,0,0,0-5.73-5.58Q165.1,56.61,133.46,38.4c-5.68-3.28-11.19-3.16-16.84.17-8.39,5-50.42,29-62.94,36.28A14.63,14.63,0,0,0,46,88.34Q46,125,46,161.7a15.78,15.78,0,0,0,1.85,7.76,15.07,15.07,0,0,0,5.82,5.74c12.52,7.25,54.56,31.33,62.95,36.28,5.64,3.33,11.15,3.45,16.84.17q31.62-18.26,63.29-36.46a15.08,15.08,0,0,0,5.82-5.73,15.8,15.8,0,0,0,1.85-7.76s0-48.9,0-73.35"/><path class="cls-5" d="M125.45,124.78l-77.6,44.68a15.07,15.07,0,0,0,5.82,5.74c12.52,7.25,54.56,31.33,62.95,36.28,5.64,3.33,11.15,3.45,16.84.17q31.62-18.26,63.29-36.46a15.08,15.08,0,0,0,5.82-5.73l-77.11-44.67"/><path class="cls-6" d="M204.41,88.35a15.72,15.72,0,0,0-1.94-7.91l-77,44.35,77.11,44.67a15.81,15.81,0,0,0,1.85-7.76s0-48.9,0-73.35"/><path class="cls-2" d="M179.49,120.61h-8.35V129h8.35Zm-8.35-12.53v8.35h8.35v-8.35h4.18v8.35H192v4.18h-8.35V129H192v4.18h-8.35v8.35h-4.18v-8.35h-8.35v8.35H167v-8.35h-8.35V129H167v-8.35h-8.35v-4.18H167v-8.35Z"/><path class="cls-2" d="M125.62,66.14a58.86,58.86,0,0,1,51,29.41l-.1-.17-25.63,14.76A29.31,29.31,0,0,0,126,95.7h-.33a29.32,29.32,0,1,0,25.55,43.7l-.12.21,25.59,14.82a58.86,58.86,0,0,1-50.36,29.46h-.66a58.88,58.88,0,1,1,0-117.76Z"/></g></svg>