<svg id="Layer_1" data-name="Layer 1" xmlns="http://www.w3.org/2000/svg" xmlns:xlink="http://www.w3.org/1999/xlink" viewBox="0 0 250 250"><defs><style>.cls-1{fill:none;}.cls-2{fill:#fff;}.cls-3{clip-path:url(#clip-path);}.cls-4{fill:#85c808;}</style><clipPath id="clip-path"><rect class="cls-1" width="250" height="250"/></clipPath></defs><title>logo-android</title><rect class="cls-2" width="250" height="250"/><g class="cls-3"><rect class="cls-4" x="75.51" y="90.43" width="98.92" height="89.44" rx="5.92" ry="5.92"/><rect class="cls-4" x="75.36" y="90.43" width="99.07" height="40.87"/><path class="cls-4" d="M200.93,144.93a10.51,10.51,0,1,1-21,0V97.54a10.51,10.51,0,0,1,21,0Z"/><path class="cls-4" d="M70,144.93a10.51,10.51,0,1,1-21,0V97.54a10.51,10.51,0,0,1,21,0Z"/><path class="cls-4" d="M75.8,84.51s1-41.91,49.16-41.76c47.53.15,49.16,41.76,49.16,41.76Z"/><path class="cls-2" d="M103.35,57.26a5.92,5.92,0,1,1-1.16.11A5.91,5.91,0,0,1,103.35,57.26Z"/><path class="cls-2" d="M146.44,57.26a5.92,5.92,0,1,1-1.16.11A5.91,5.91,0,0,1,146.44,57.26Z"/><path class="cls-4" d="M101.72,48.38c.15.3.74.15,1.18-.15s.74-.89.59-1l-9.18-13c-.15-.3-.74-.15-1.18.15s-.74.89-.59,1Z"/><path class="cls-4" d="M148.07,48.38c-.15.3-.74.15-1.18-.15s-.74-.89-.59-1l9.33-13c.15-.3.74-.15,1.18.15s.74.89.59,1Z"/><path class="cls-4" d="M155.77,206.23a10.51,10.51,0,0,1-21,0V158.85a10.51,10.51,0,1,1,21,0Z"/><path class="cls-4" d="M115.19,206.23a10.51,10.51,0,0,1-21,0V158.85a10.51,10.51,0,1,1,21,0Z"/></g></svg>