<svg id="Layer_1" data-name="Layer 1" xmlns="http://www.w3.org/2000/svg" xmlns:xlink="http://www.w3.org/1999/xlink" viewBox="0 0 250 250"><defs><style>.cls-1{fill:none;}.cls-2{fill:#fff;}.cls-3{clip-path:url(#clip-path);}.cls-4{fill:#282828;}</style><clipPath id="clip-path"><rect class="cls-1" width="250" height="250"/></clipPath></defs><title>logo-ios</title><rect class="cls-2" width="250" height="250"/><g class="cls-3"><rect class="cls-4" x="38" y="38" width="173.47" height="173.47"/><path class="cls-2" d="M162.43,161c-5.6-1-11-1.7-15.56-4.3-.06-.05,2.7-10.37,2.82-10.55,7.35,2.5,17.7,6,24.67,2.79a8.73,8.73,0,0,0,5-9.48c-.71-4.56-3.87-7.19-12.54-10.43-9.67-3.62-15.34-8.06-17.66-13.84a18.91,18.91,0,0,1-1-9.62c1.43-8.79,8.27-14.9,18.78-16.77a50.57,50.57,0,0,1,12.76,0c4.62.77,9.91,2.52,9.91,3.27,0,.28-2.7,9.81-2.84,10a41,41,0,0,0-14-3.13c-6.13-.08-12.77,3.56-11.6,10,.83,4,3.4,6,12.86,9.84,7,2.83,10.31,4.79,13.17,7.7a18.06,18.06,0,0,1,5.27,13.26,17.09,17.09,0,0,1-1.72,8.62q-5,10.83-20.37,12.56a54.93,54.93,0,0,1-8,.09Zm-105-51.27v51.38H70.51V109.72ZM64,88.37a7,7,0,1,0,7,7A7,7,0,0,0,64,88.37Zm51.11,10.86c7,1.86,12.07,8.18,14,17.39a39.84,39.84,0,0,1-1,19.83c-3,9.17-9.66,14.34-17.7,14.26-8,.08-14.65-5.09-17.7-14.26a39.89,39.89,0,0,1-1-19.83c1.95-9.21,7-15.52,14-17.39A23.67,23.67,0,0,1,115.08,99.23Zm-4.64-10.86a32.54,32.54,0,0,0-14.6,3.4c-11.65,5.81-18.38,18-18.38,33.43s6.62,27.3,18.31,32.85a33.61,33.61,0,0,0,11.13,2.89,45.4,45.4,0,0,0,7.08,0,33.61,33.61,0,0,0,11.13-2.89c11.7-5.55,18.32-17.41,18.32-32.85S136.7,97.58,125,91.78A32.55,32.55,0,0,0,110.44,88.37Z"/></g></svg>