<svg id="Layer_1" data-name="Layer 1" xmlns="http://www.w3.org/2000/svg" xmlns:xlink="http://www.w3.org/1999/xlink" viewBox="0 0 250 250"><defs><style>.cls-1{fill:none;}.cls-2{fill:#fff;}.cls-3{clip-path:url(#clip-path);}.cls-4{fill:#e44d26;}.cls-5{fill:#f16529;}.cls-6{fill:#ebebeb;}</style><clipPath id="clip-path"><rect class="cls-1" width="250" height="250"/></clipPath></defs><title>loho-html</title><rect class="cls-2" width="250" height="250"/><g class="cls-3"><polygon class="cls-4" points="73.52 200.34 62 71.12 188.6 71.12 177.07 200.32 125.22 214.7 73.52 200.34"/><polygon class="cls-5" points="125.3 203.71 167.19 192.1 177.05 81.69 125.3 81.69 125.3 203.71"/><path class="cls-6" d="M125.3,170.77l-.07,0L107.58,166l-1.13-12.64H90.54l2.22,24.89,32.47,9,.07,0Zm0-41.16h-21l-1.45-16.23H125.3V97.53H85.56l.38,4.25,3.9,43.68H125.3Z"/><path d="M157.66,36h8.06V52.13H177v8H157.66Zm-31.14,0h8.4l5.17,8.47L145.25,36h8.4V60.1h-8V48.15l-5.54,8.57H140l-5.55-8.57V60.1h-7.88V36Zm-18.68,8h-7.09V36H123v8H115.9V60.1h-8.06V44ZM73.78,36h8.05v8H89.2V36h8.05V60.1H89.2V52H81.83V60.1H73.78Z"/><path class="cls-2" d="M125.25,97.53v15.85h38.28l.32-3.56.72-8,.38-4.25Zm0,32.08v15.85h19.52L142.92,166l-17.68,4.77v16.49l32.49-9,.24-2.68,3.73-41.72.39-4.26H125.25Z"/></g></svg>