<svg id="Layer_1" data-name="Layer 1" xmlns="http://www.w3.org/2000/svg" viewBox="0 0 250 250"><defs><style>.cls-1{fill:#999;fill-rule:evenodd;}</style></defs><title>logo-apple</title><path class="cls-1" d="M133.07,46c12.57-16.57,30.05-16.65,30.05-16.65s2.6,15.58-9.89,30.59c-13.34,16-28.5,13.4-28.5,13.4S121.89,60.71,133.07,46Z"/><path class="cls-1" d="M126.34,84.23c6.47,0,18.47-8.89,34.1-8.89,26.9,0,37.48,19.14,37.48,19.14a41.55,41.55,0,0,0-20.69,36.25c0,29,25.78,38.94,25.78,38.94s-18,50.72-42.36,50.72c-11.18,0-19.87-7.53-31.65-7.53-12,0-23.92,7.82-31.68,7.82C75.08,220.68,47,172.56,47,133.89c0-38.05,23.77-58,46.06-58C107.56,75.87,118.8,84.23,126.34,84.23Z"/></svg>