<svg id="Layer_1" data-name="Layer 1" xmlns="http://www.w3.org/2000/svg" xmlns:xlink="http://www.w3.org/1999/xlink" viewBox="0 0 250 250"><defs><style>.cls-1{fill:none;}.cls-2{fill:#fff;}.cls-3{clip-path:url(#clip-path);}.cls-4{fill:#00979c;}</style><clipPath id="clip-path"><rect class="cls-1" width="250" height="250"/></clipPath></defs><title>logo-arduino</title><rect class="cls-2" width="250" height="250"/><g class="cls-3"><path class="cls-4" d="M80.17,80.41c-15.31,0-27.76,11.85-27.76,26.42s12.45,26.42,27.76,26.42h.38a26.88,26.88,0,0,0,21-7.52c5.46-5,9.94-12,14.55-19.46-4-6.39-8.1-12.27-13-16.87a31.86,31.86,0,0,0-22.93-9Zm52.91,25.88c4.62,7.49,9.09,14.46,14.55,19.46a26.88,26.88,0,0,0,21,7.52h.38c15.31,0,27.76-11.85,27.76-26.42s-12.45-26.42-27.76-26.42a31.86,31.86,0,0,0-22.93,9c-4.94,4.59-9,10.48-13,16.87Zm33.66,41.44a41.06,41.06,0,0,1-28.85-11.36c-5.14-4.71-9.38-10.49-13.28-16.49-3.9,6-8.14,11.78-13.28,16.49A41.3,41.3,0,0,1,80,147.68c-23.16-.1-42-18.38-42-40.84S56.92,66,80.17,66a46.08,46.08,0,0,1,32.75,12.87,82.1,82.1,0,0,1,11.69,14,82.13,82.13,0,0,1,11.69-14A46.08,46.08,0,0,1,169.05,66c23.25,0,42.17,18.32,42.17,40.84s-18.81,40.74-42,40.84q-1.25.06-2.5.06Zm40.41-78.65-.85,2.77-.88-2.77h-1.15v4.06h.83v-2.6l.82,2.6h.75l.78-2.53v2.53h.82V69.09h-1.13m-6.42.81H202v3.26h.88V69.9h1.25v-.81h-3.37v.81m2.49,103.24a8.43,8.43,0,0,1-.93,2.69,4,4,0,0,1-1.49,1.52,4.53,4.53,0,0,1-2.24.51,3.91,3.91,0,0,1-3.72-2c-.83-1.47-1.25-3.78-1.25-6.87a21.5,21.5,0,0,1,.31-3.88,8.28,8.28,0,0,1,.93-2.69,4,4,0,0,1,1.5-1.52,4.46,4.46,0,0,1,2.23-.51,3.9,3.9,0,0,1,3.73,2c.83,1.47,1.24,3.78,1.24,6.87A21.53,21.53,0,0,1,203.22,173.14ZM207.82,158c-2-2.59-5.09-3.91-9.08-3.91a13.05,13.05,0,0,0-4.83.9,10.65,10.65,0,0,0-4,2.8,13.23,13.23,0,0,0-2.65,4.75,21.4,21.4,0,0,0-.94,6.71c0,4.75,1,8.44,3,11s5.09,3.92,9.08,3.92a13.06,13.06,0,0,0,4.84-.9,10.66,10.66,0,0,0,4-2.8,13.26,13.26,0,0,0,2.65-4.75,21.43,21.43,0,0,0,.94-6.71c0-4.76-1-8.46-3-11Zm-29.1,13.14-7.8-16.58H163v29.1h6.5v-16.9l7.84,16.9h7.86v-29.1h-6.5v16.58m-39-10.73H146v17.35h-6.26v5.9H159.3v-5.9H153V160.43h6.26v-5.85H139.71v5.85m-10.55,12.66a10,10,0,0,1-.28,2.54,4,4,0,0,1-.75,1.55A2.64,2.64,0,0,1,127,178a5.94,5.94,0,0,1-2,.28,5.55,5.55,0,0,1-2-.32,3.06,3.06,0,0,1-1.23-.89,3.55,3.55,0,0,1-.7-1.48,10.08,10.08,0,0,1-.23-2.27V154.58h-7v19a15,15,0,0,0,.58,4.29,8.26,8.26,0,0,0,2,3.4,8.71,8.71,0,0,0,3.5,2.14,15.35,15.35,0,0,0,5,.72,14.3,14.3,0,0,0,4.66-.72,9.23,9.23,0,0,0,5.9-5.8,14.23,14.23,0,0,0,.78-4.89V154.58h-7v18.51m-26,2.63a6.81,6.81,0,0,1-5.37,2H96.23V160.54h1.9a8.65,8.65,0,0,1,3.36.57,4.7,4.7,0,0,1,2,1.57,6.88,6.88,0,0,1,1.11,2.64,18.62,18.62,0,0,1,.35,3.8c0,3-.62,5.25-1.84,6.6ZM108.85,158a10.77,10.77,0,0,0-4.41-2.63,19.53,19.53,0,0,0-6-.83H89.25v29.1h8a19.51,19.51,0,0,0,6.74-1,11.71,11.71,0,0,0,7.47-7.8,20.25,20.25,0,0,0,.85-6,20.5,20.5,0,0,0-.86-6.26A11.12,11.12,0,0,0,108.85,158Zm-30.48,6.79a2.68,2.68,0,0,1-.86,1,4.35,4.35,0,0,1-1.46.63,8.52,8.52,0,0,1-2.05.23H72.63v-6.13h1.53a6.54,6.54,0,0,1,3.53.75,2.45,2.45,0,0,1,1,2.22,2.81,2.81,0,0,1-.3,1.33Zm3,5.58-.32-.32.64-.27a7.32,7.32,0,0,0,2.21-1.55,6.8,6.8,0,0,0,1.46-2.3,8.23,8.23,0,0,0,.51-3,8.69,8.69,0,0,0-.82-3.92,6.91,6.91,0,0,0-2.35-2.67A9.87,9.87,0,0,0,79.18,155a22.4,22.4,0,0,0-4.42-.41h-9.1v29.1h7V172.31h.21a3.52,3.52,0,0,1,1.95.51,3.4,3.4,0,0,1,1.27,1.55l4.22,9.31H88.4L83.27,173.3a12.07,12.07,0,0,0-1.87-2.9Zm-32.89,2,2.65-9.05,2.62,9.05ZM47,154.58l-8.92,29.1h7l1.61-5.42h8.7L57,183.68h7.63l-8.92-29.1Z"/><path class="cls-4" d="M68.47,101.5H94.16v8.35H68.47Zm102.49.1V93.78h-8.14v7.82H155v8.1h7.82v7.87H171V109.7h7.82v-8.1H171"/></g></svg>