<svg id="Layer_1" data-name="Layer 1" xmlns="http://www.w3.org/2000/svg" xmlns:xlink="http://www.w3.org/1999/xlink" viewBox="0 0 250 250"><defs><style>.cls-1{fill:none;}.cls-2{fill:#fff;}.cls-3{clip-path:url(#clip-path);}</style><clipPath id="clip-path"><rect class="cls-1" width="250" height="250"/></clipPath></defs><title>logo-ios2</title><rect class="cls-2" width="250" height="250"/><g class="cls-3"><path d="M159.58,171.37c5.4,3.6,14.72,7.07,22.73,7.07,15.21,0,28.74-10.64,28.74-26.31,0-14.54-9-22.12-24.31-28.64-13.69-5.83-26-12.16-26-27.7,0-16.19,12.76-27.65,30.1-27.65,9.32,0,16.36,2.62,19.63,4.91l-1.3,2.82c-2.78-2-10.3-4.46-18.47-4.46-18.32,0-26.31,13.85-26.31,24,0,14.08,10.91,18.79,25,25.49,16.36,8,25,15.08,25,30.46,0,16.52-11.78,29.93-32.71,29.93-8.67,0-18.65-2.94-23.55-6.71l1.46-3.27Zm-99-46.62c0,30,14.55,53.33,41.36,53.33,27,0,42.49-24,42.49-53.67,0-27.48-12.41-52.57-40.72-52.57S60.53,95.46,60.53,124.76Zm87.24-.82c0,39.58-22,57.58-46,57.58-24.57,0-44.47-19.46-44.47-55.94C57.27,88.12,77.86,68,103.47,68,128.56,68,147.77,87.79,147.77,123.94ZM37.51,179.88V101.37h3.22v78.51ZM42.23,77.24a3.13,3.13,0,1,1-6.23,0,3.27,3.27,0,0,1,3.16-3.42A3.15,3.15,0,0,1,42.23,77.24Z"/></g></svg>