<svg id="Layer_1" data-name="Layer 1" xmlns="http://www.w3.org/2000/svg" xmlns:xlink="http://www.w3.org/1999/xlink" viewBox="0 0 250 250"><defs><style>.cls-1{fill:none;}.cls-2{fill:#fff;}.cls-3{clip-path:url(#clip-path);}.cls-4{fill:#3498db;}</style><clipPath id="clip-path"><rect class="cls-1" width="250" height="250"/></clipPath></defs><title>logo-xamarin</title><rect class="cls-2" width="250" height="250"/><g class="cls-3"><path class="cls-4" d="M107.52,75.56c3.21,5.78,6.45,11.6,9.7,17.38.1.3.53.67.23,1-3.31,6-6.65,11.9-10,17.85a.85.85,0,0,0,.77,1.34c2,0,4,0,6,0,.53,0,.74-.57,1-.94,3.41-6.12,6.85-12.24,10.26-18.35,3.34,6.05,6.75,12.07,10.1,18.12.3.43.47,1.17,1.1,1.17,2,.07,4,0,6,0a.88.88,0,0,0,.8-1.4c-3.38-6-6.69-12-10.1-18.05,3.34-6.15,6.82-12.2,10.16-18.32a.84.84,0,0,0-.87-1.2c-2,0-4,0-6,0-.53,0-.7.57-.94.94-3.38,6.12-6.85,12.24-10.23,18.35-3.38-6.12-6.85-12.24-10.26-18.35-.27-.37-.43-1-1-.94-2,0-4,0-6,0A.84.84,0,0,0,107.52,75.56Zm-1.77-19.26a7.94,7.94,0,0,1,2.51-.3H143a6.79,6.79,0,0,1,6.08,3.38q8.88,15.4,17.72,30.79a6.81,6.81,0,0,1,.1,6.82q-8.58,15-17.18,30a7.26,7.26,0,0,1-7,4.45H108A6.86,6.86,0,0,1,101.9,128Q93,112.56,84.22,97.16a6.76,6.76,0,0,1,0-6.92q8.48-14.79,17-29.59A7.5,7.5,0,0,1,105.75,56.31Z"/><path class="cls-4" d="M196.88,144.07c2.61-.87,5.82,1,6,3.84a4.34,4.34,0,0,1-4.08,4.68,4.56,4.56,0,0,1-5-3.68A4.41,4.41,0,0,1,196.88,144.07Z"/><path class="cls-4" d="M14.37,151.22H23.9c2.61,5.35,5.25,10.7,7.79,16,2.77-5.38,5.62-10.73,8.46-16.08,2.91,0,5.78,0,8.69,0-4.11,7-8.26,13.94-12.34,20.93L49,193.41H39.75C36.84,188,34,182.48,31.15,177c-2.94,5.45-5.82,11-8.79,16.42-3.11,0-6.25,0-9.36,0l13.34-21.16C22.36,165.26,18.38,158.24,14.37,151.22Z"/><path class="cls-4" d="M63,178.17c-1.94.3-4.25.67-5.35,2.51s-1,4.68.77,6.22a6.86,6.86,0,0,0,5.72,1.27A7.54,7.54,0,0,0,69.87,183c.6-1.87.37-3.84.43-5.75C67.9,177.53,65.49,177.87,63,178.17ZM52.92,162.22a27.21,27.21,0,0,1,11.4-2.94c3.51-.07,7.32.57,9.93,3.11s3.34,6.15,3.38,9.56c0,7.15,0,14.34,0,21.5H70.2v-4.71a12,12,0,0,1-5.48,4.68,13.48,13.48,0,0,1-9.09.07,8.92,8.92,0,0,1-5.75-6.85,11.91,11.91,0,0,1,1.91-9.19c1.91-2.37,4.91-3.51,7.82-4,3.54-.5,7.12-1,10.7-1.47,0-1.94-.4-4-1.91-5.42s-3.78-1.5-5.75-1.34a18.48,18.48,0,0,0-9.76,3.64C52.92,166.63,52.92,164.43,52.92,162.22Z"/><path class="cls-4" d="M97,160.08c3.44-1.27,7.59-1.17,10.63,1a9.27,9.27,0,0,1,3.51,4.68,12.57,12.57,0,0,1,7.39-6,13.82,13.82,0,0,1,8.69.43,9.17,9.17,0,0,1,4.91,5.48,26.37,26.37,0,0,1,1.07,9.29v18.49h-7.56V175.66c-.07-3,0-6.39-2.11-8.73a6.51,6.51,0,0,0-8.73.33,10.32,10.32,0,0,0-2.77,7.36v18.79H104.5V176c0-2.47.1-5.08-1-7.39-1.6-3.58-6.92-4.18-9.66-1.57A10,10,0,0,0,91,174.29c0,6.39,0,12.74,0,19.12H83.47V160H91c0,1.77,0,3.51,0,5.28A12.31,12.31,0,0,1,97,160.08Z"/><path class="cls-4" d="M151.24,178.13c-1.94.3-4.25.64-5.48,2.37-1.1,1.94-1.1,4.78.64,6.39a6.86,6.86,0,0,0,5.72,1.27,7.57,7.57,0,0,0,5.72-5.18c.6-1.84.37-3.84.4-5.75C155.89,177.5,153.58,177.87,151.24,178.13Zm-10.36-15.91a27.16,27.16,0,0,1,12.1-2.94c3.51,0,7.32.87,9.73,3.61s2.94,6.32,2.91,9.73v20.83H158.2v-4.71a12.46,12.46,0,0,1-5,4.48,13.37,13.37,0,0,1-9.39.33,9,9,0,0,1-6-6.89,11.76,11.76,0,0,1,1.87-9.19c1.87-2.41,4.91-3.54,7.82-4,3.58-.53,7.15-1,10.73-1.47a7.46,7.46,0,0,0-1.74-5.25,6.75,6.75,0,0,0-5.25-1.54,18.78,18.78,0,0,0-10.43,3.68C140.88,166.63,140.88,164.43,140.88,162.22Z"/><path class="cls-4" d="M221,160.48a14.18,14.18,0,0,1,9.09-.87,8.87,8.87,0,0,1,6.12,4.88,19.64,19.64,0,0,1,1.6,8.76v20.16h-7.52V175.59c0-2.74-.1-5.78-1.81-8.06-2.27-2.88-6.92-2.74-9.56-.47a9.36,9.36,0,0,0-3.18,7.19v19.16h-7.52V160h7.52c0,1.84,0,3.64,0,5.48A13.07,13.07,0,0,1,221,160.48Z"/><path class="cls-4" d="M182.87,161a9,9,0,0,1,7.92-1.1v7.46a8.61,8.61,0,0,0-6-.94,6.75,6.75,0,0,0-4,3,12.31,12.31,0,0,0-1.77,6.85v17.12h-7.52V160h7.52c0,2.21,0,4.45,0,6.65C180,164.59,181,162.42,182.87,161Z"/><path class="cls-4" d="M194.44,160.08H202v33.37h-7.52C194.44,182.31,194.4,171.18,194.44,160.08Z"/></g></svg>