<svg id="Layer_1" data-name="Layer 1" xmlns="http://www.w3.org/2000/svg" xmlns:xlink="http://www.w3.org/1999/xlink" viewBox="0 0 250 250"><defs><style>.cls-1{fill:none;}.cls-2{fill:#fff;}.cls-3{clip-path:url(#clip-path);}.cls-4{fill:#e76f00;}.cls-5{fill:#5382a1;}</style><clipPath id="clip-path"><rect class="cls-1" width="250" height="250"/></clipPath></defs><title>logo-java</title><rect class="cls-2" width="250" height="250"/><g class="cls-3"><path class="cls-4" d="M176.77,181.47h0l-.73,2h-.33l-.73-2h0v2h-.49v-2.47h.72l.67,1.75.67-1.75h.71v2.47h-.47Zm-4-.11h-.74v-.41h2v.41h-.73v2.06h-.52Z"/><path class="cls-5" d="M103.58,116.13s-5.75,4.26,3,5.17c11.37,1.17,20.34,1.27,35.87-1.72a15.92,15.92,0,0,0,5.53,3.37c-31.78,9.29-67.17.73-44.43-6.82m3.21,14.7s-5.13,3,3.65,4c10.64,1.21,16.08,1,27.8-1.18a48.37,48.37,0,0,0,7.39,3.61c-26.28,11.26-59.48-.65-38.84-6.42"/><path class="cls-4" d="M130.66,91.2c6.48,7.46-1.7,14.17-1.7,14.17s16.44-8.49,8.89-19.12c-7.05-9.91-12.46-14.84,16.82-31.82,0,0-46,11.48-24,36.77"/><path class="cls-5" d="M153,125.37c25.19-13.09,13.54-25.67,5.41-24a18.85,18.85,0,0,0-2.88.77,4.59,4.59,0,0,1,2.15-1.66c16.08-5.65,28.45,16.68-5.19,25.52a2.19,2.19,0,0,0,.51-.66M109.26,100.9s-24.4,5.8-8.64,7.9c6.65.89,19.92.69,32.28-.35,10.1-.85,20.24-2.66,20.24-2.66a42.86,42.86,0,0,0-6.14,3.28c-24.78,6.52-72.65,3.49-58.87-3.18,11.65-5.63,21.13-5,21.13-5m56.16,40.8s3.8,3.13-4.18,5.55c-15.17,4.6-63.14,6-76.47.18-4.79-2.08,4.19-5,7-5.58a18.22,18.22,0,0,1,4.63-.52c-5.33-3.75-34.44,7.37-14.79,10.55,53.59,8.69,97.69-3.91,83.79-10.18"/><path class="cls-4" d="M137.85,27s14,14-13.23,35.41c-21.8,17.21-5,27,0,38.24-12.72-11.48-22.06-21.59-15.8-31,9.19-13.81,34.67-20.5,29-42.67"/><path class="cls-5" d="M111.74,160.84c24.18,1.55,61.31-.86,62.19-12.3,0,0-1.69,4.34-20,7.78-20.64,3.88-46.09,3.43-61.19.94,0,0,3.09,2.56,19,3.58"/><path class="cls-4" d="M83,216.88a16.54,16.54,0,0,1-7.86,5.86L72,219.09a13,13,0,0,0,5.45-5.1c.83-1.66,1.18-3.79,1.18-8.9V170h6.69V204.6c0,6.83-.55,9.59-2.34,12.28m88.51-5.22v-22c0-5.62-3.21-9.32-10.92-9.32a28.78,28.78,0,0,0-11.67,2.53l.93,3.89a27.16,27.16,0,0,1,9-1.79c4.44,0,6.36,1.79,6.36,5.49v2.78H163c-10.81,0-15.68,4.2-15.68,10.49,0,5.43,3.21,8.52,9.26,8.52,3.89,0,6.79-1.61,9.51-4l.49,3.34h4.94Zm-6.29-7.1c-2.29,2-4.7,3.09-6.86,3.09-3.08,0-4.75-1.85-4.75-4.82,0-3.21,1.79-5.56,9-5.56h2.66v7.29m-30.11,7.1h-7.85l-9.45-30.75h6.86l5.86,18.89,1.3,5.68a118.11,118.11,0,0,0,6.11-24.57h6.67a124.87,124.87,0,0,1-9.5,30.75m-21,0v-22c0-5.62-3.2-9.32-10.92-9.32a28.78,28.78,0,0,0-11.67,2.53l.93,3.89a27.12,27.12,0,0,1,9-1.79c4.45,0,6.36,1.79,6.36,5.49v2.78h-2.22c-10.81,0-15.68,4.2-15.68,10.49,0,5.43,3.21,8.52,9.26,8.52,3.89,0,6.79-1.61,9.5-4l.49,3.34Zm-6.29-7.1c-2.28,2-4.69,3.09-6.85,3.09-3.09,0-4.75-1.85-4.75-4.82,0-3.21,1.79-5.56,9-5.56h2.65v7.29"/></g></svg>