<svg id="Layer_1" data-name="Layer 1" xmlns="http://www.w3.org/2000/svg" xmlns:xlink="http://www.w3.org/1999/xlink" viewBox="0 0 234 173"><defs><style>.cls-1{fill:none;}.cls-2{fill:#fff;}.cls-3{clip-path:url(#clip-path);}.cls-4{fill:#4b2939;}.cls-5{fill:#6a1a34;}.cls-6{fill:#a42d43;}</style><clipPath id="clip-path"><rect class="cls-1" width="234" height="173"/></clipPath></defs><title>Artboard 1</title><rect class="cls-2" width="234" height="173"/><g class="cls-3"><path class="cls-4" d="M24.75,138.1a17,17,0,0,1-6.63-1.18,12.37,12.37,0,0,1-4.61-3.23,13.19,13.19,0,0,1-2.67-4.86,20.36,20.36,0,0,1-.87-6.07V98.33h5.45v23.82q0,5.84,2.58,8.48a9,9,0,0,0,6.74,2.64,10.67,10.67,0,0,0,3.79-.65,7.57,7.57,0,0,0,2.95-2,9.16,9.16,0,0,0,1.91-3.45,16.58,16.58,0,0,0,.67-5V98.33h5.45v24.44a20.39,20.39,0,0,1-.87,6.07,13,13,0,0,1-2.7,4.86,12.68,12.68,0,0,1-4.61,3.23A16.82,16.82,0,0,1,24.75,138.1Z"/><path class="cls-4" d="M48.57,108.89q1.8-.45,4.77-1a41.27,41.27,0,0,1,6.85-.51,14.82,14.82,0,0,1,5.79,1,9.06,9.06,0,0,1,3.68,2.75,10.66,10.66,0,0,1,1.94,4.24,24.69,24.69,0,0,1,.56,5.45v16.4H66.94V122a25,25,0,0,0-.36-4.61,7.81,7.81,0,0,0-1.21-3.09,4.79,4.79,0,0,0-2.25-1.71,9.88,9.88,0,0,0-3.48-.53q-.84,0-1.74.06t-1.71.14q-.81.08-1.46.2l-.93.17v24.66H48.57Z"/><path class="cls-4" d="M89.58,137.82q-4.83-.11-6.85-2.08t-2-6.12V94.56l5.22-.9v35.11a8.44,8.44,0,0,0,.22,2.13,2.93,2.93,0,0,0,.73,1.35,3.13,3.13,0,0,0,1.35.76,13.71,13.71,0,0,0,2.08.42Z"/><path class="cls-4" d="M106,133.49q1.85,0,3.29-.08a14.28,14.28,0,0,0,2.39-.31v-8.71a6.73,6.73,0,0,0-1.83-.48,20.34,20.34,0,0,0-3.06-.2,19.79,19.79,0,0,0-2.5.17,7.72,7.72,0,0,0-2.42.7,5.18,5.18,0,0,0-1.83,1.46,3.83,3.83,0,0,0-.73,2.44q0,2.81,1.8,3.9A9.35,9.35,0,0,0,106,133.49Zm-.45-26.18a15.14,15.14,0,0,1,5.31.81,8.62,8.62,0,0,1,3.48,2.3,8.75,8.75,0,0,1,1.88,3.54,17.11,17.11,0,0,1,.56,4.52v18.26l-1.88.31q-1.21.2-2.72.37t-3.29.31q-1.77.14-3.51.14a19.21,19.21,0,0,1-4.55-.51,10.16,10.16,0,0,1-3.59-1.6,7.33,7.33,0,0,1-2.36-2.89,10.13,10.13,0,0,1-.84-4.33,8.31,8.31,0,0,1,1-4.16,7.82,7.82,0,0,1,2.67-2.81,12.35,12.35,0,0,1,3.93-1.57,21.47,21.47,0,0,1,4.72-.51q.79,0,1.63.08t1.6.23l1.32.25.79.17v-1.46a11.77,11.77,0,0,0-.28-2.56,5.86,5.86,0,0,0-1-2.25,5.13,5.13,0,0,0-2-1.57,7.81,7.81,0,0,0-3.29-.59,24.71,24.71,0,0,0-4.52.37,16,16,0,0,0-2.89.76l-.62-4.33a16.09,16.09,0,0,1,3.37-.87A29.16,29.16,0,0,1,105.58,107.31Z"/><path class="cls-5" d="M134.85,133.38q8.54,0,8.54-5.84a5.86,5.86,0,0,0-.76-3.06,7.34,7.34,0,0,0-2.05-2.19,14.24,14.24,0,0,0-2.95-1.6q-1.66-.67-3.51-1.35a35.55,35.55,0,0,1-4-1.66,14.12,14.12,0,0,1-3.32-2.19,9.3,9.3,0,0,1-2.22-3,9.89,9.89,0,0,1-.81-4.21,9.76,9.76,0,0,1,3.48-8q3.48-2.86,9.61-2.86a25.37,25.37,0,0,1,6.43.76,14.72,14.72,0,0,1,4.24,1.66l-1.74,4.44a15.37,15.37,0,0,0-3.51-1.43,18.86,18.86,0,0,0-5.42-.7,12,12,0,0,0-2.92.34,7.49,7.49,0,0,0-2.36,1,5,5,0,0,0-1.6,1.71,4.87,4.87,0,0,0-.59,2.44,5.19,5.19,0,0,0,.62,2.64,6.1,6.1,0,0,0,1.74,1.88,14.78,14.78,0,0,0,2.61,1.49q1.49.67,3.29,1.35,2.53,1,4.63,2a15.1,15.1,0,0,1,3.65,2.42,9.7,9.7,0,0,1,2.39,3.34,11.74,11.74,0,0,1,.84,4.69,9.18,9.18,0,0,1-3.74,7.86q-3.74,2.75-10.53,2.75a27.13,27.13,0,0,1-4.24-.31,31.5,31.5,0,0,1-3.45-.73,19.83,19.83,0,0,1-2.61-.9q-1.09-.48-1.71-.81l1.63-4.49a24.42,24.42,0,0,0,3.93,1.63A20.19,20.19,0,0,0,134.85,133.38Z"/><path class="cls-5" d="M175.69,122.65a12.57,12.57,0,0,0-2.22-7.84,7.75,7.75,0,0,0-12.08,0,12.56,12.56,0,0,0-2.22,7.84,12.56,12.56,0,0,0,2.22,7.84,7.75,7.75,0,0,0,12.08,0A12.57,12.57,0,0,0,175.69,122.65Zm5.45,0a18.48,18.48,0,0,1-1,6.29,14.39,14.39,0,0,1-2.84,4.83,12.49,12.49,0,0,1-4.35,3.12,14.39,14.39,0,0,1-11,0,12.47,12.47,0,0,1-4.35-3.12,14.37,14.37,0,0,1-2.84-4.83,20,20,0,0,1,0-12.56,14.33,14.33,0,0,1,2.84-4.86,12.46,12.46,0,0,1,4.35-3.12,14.39,14.39,0,0,1,11,0,12.48,12.48,0,0,1,4.35,3.12,14.35,14.35,0,0,1,2.84,4.86A18.55,18.55,0,0,1,181.14,122.65Z"/><path class="cls-5" d="M199.9,93.66a20.18,20.18,0,0,1,4,.34,14.26,14.26,0,0,1,2.33.62l-1,4.49a9.72,9.72,0,0,0-1.91-.65,12.78,12.78,0,0,0-3-.31q-3.65,0-5.11,2a8.88,8.88,0,0,0-1.46,5.36V108H205v4.38H193.72v24.83H188.5V105.4q0-5.62,2.75-8.68T199.9,93.66Z"/><path class="cls-5" d="M215.06,108h11.07v4.38H215.06v13.48a16.16,16.16,0,0,0,.34,3.62,5.43,5.43,0,0,0,1,2.25,3.64,3.64,0,0,0,1.69,1.15,7.48,7.48,0,0,0,2.36.34,11.09,11.09,0,0,0,3.79-.53l2-.76,1,4.33a19.41,19.41,0,0,1-2.75,1,15.67,15.67,0,0,1-4.49.59,13.62,13.62,0,0,1-4.92-.76,7.16,7.16,0,0,1-3.12-2.27,9.11,9.11,0,0,1-1.66-3.74,24.63,24.63,0,0,1-.48-5.14V99.9l5.22-.9Z"/><path class="cls-4" d="M15,159.7q3.07,0,3.07-2.1a2.11,2.11,0,0,0-.27-1.1,2.64,2.64,0,0,0-.74-.79,5.13,5.13,0,0,0-1.06-.58l-1.26-.49a12.65,12.65,0,0,1-1.46-.6,5.07,5.07,0,0,1-1.19-.79,3.35,3.35,0,0,1-.8-1.08,3.55,3.55,0,0,1-.29-1.52,3.51,3.51,0,0,1,1.25-2.87,5.28,5.28,0,0,1,3.46-1A9.16,9.16,0,0,1,18,147a5.3,5.3,0,0,1,1.53.6l-.63,1.6a5.6,5.6,0,0,0-1.26-.52,6.79,6.79,0,0,0-2-.25,4.3,4.3,0,0,0-1.05.12,2.68,2.68,0,0,0-.85.36,1.8,1.8,0,0,0-.58.62,1.75,1.75,0,0,0-.21.88,1.86,1.86,0,0,0,.22.95,2.16,2.16,0,0,0,.63.68,5.33,5.33,0,0,0,.94.54q.54.24,1.18.48.91.36,1.67.73a5.41,5.41,0,0,1,1.31.87,3.48,3.48,0,0,1,.86,1.2,4.22,4.22,0,0,1,.3,1.69,3.3,3.3,0,0,1-1.34,2.83,6.29,6.29,0,0,1-3.79,1,9.75,9.75,0,0,1-1.53-.11A11.26,11.26,0,0,1,12.2,161a7.11,7.11,0,0,1-.94-.32c-.26-.11-.47-.21-.62-.29l.59-1.62a8.89,8.89,0,0,0,1.42.59A7.28,7.28,0,0,0,15,159.7Z"/><path class="cls-4" d="M29.67,155.84a4.53,4.53,0,0,0-.8-2.82,2.79,2.79,0,0,0-4.35,0,5.38,5.38,0,0,0,0,5.64,2.79,2.79,0,0,0,4.35,0A4.52,4.52,0,0,0,29.67,155.84Zm2,0a6.66,6.66,0,0,1-.36,2.26,5.16,5.16,0,0,1-1,1.74A4.49,4.49,0,0,1,28.67,161a5.18,5.18,0,0,1-4,0,4.5,4.5,0,0,1-1.57-1.12,5.16,5.16,0,0,1-1-1.74,7.19,7.19,0,0,1,0-4.52,5.14,5.14,0,0,1,1-1.75,4.5,4.5,0,0,1,1.57-1.12,5.17,5.17,0,0,1,4,0,4.49,4.49,0,0,1,1.57,1.12,5.15,5.15,0,0,1,1,1.75A6.68,6.68,0,0,1,31.63,155.84Z"/><path class="cls-4" d="M37.43,161.29a3.61,3.61,0,0,1-2.47-.75,3,3,0,0,1-.73-2.2V145.73l1.88-.32V158a3,3,0,0,0,.08.77,1.05,1.05,0,0,0,.26.49,1.14,1.14,0,0,0,.49.27,5,5,0,0,0,.75.15Z"/><path class="cls-4" d="M48.16,160.79q-.65.16-1.71.34a14.71,14.71,0,0,1-2.46.18,5.21,5.21,0,0,1-2-.35,3.3,3.3,0,0,1-1.33-1,4.07,4.07,0,0,1-.73-1.53,8,8,0,0,1-.22-2v-5.9h1.88v5.5a4.76,4.76,0,0,0,.61,2.75,2.36,2.36,0,0,0,2,.83l.63,0,.61-.05.52-.06a1.54,1.54,0,0,0,.33-.07v-8.88h1.88Z"/><path class="cls-4" d="M56,161.33a5.72,5.72,0,0,1-2.23-.4,4.49,4.49,0,0,1-1.62-1.13,4.71,4.71,0,0,1-1-1.73,7.17,7.17,0,0,1-.32-2.21,6.68,6.68,0,0,1,.35-2.22,5.25,5.25,0,0,1,1-1.75,4.5,4.5,0,0,1,1.59-1.15,5.13,5.13,0,0,1,2.09-.41,8.33,8.33,0,0,1,1.42.12,6.52,6.52,0,0,1,1.35.38l-.42,1.6a4.51,4.51,0,0,0-1-.32A5.51,5.51,0,0,0,56,152a3,3,0,0,0-2.42,1,4.36,4.36,0,0,0-.84,2.89,5.91,5.91,0,0,0,.19,1.56,3.21,3.21,0,0,0,.61,1.21,2.7,2.7,0,0,0,1.06.78,4.05,4.05,0,0,0,1.58.27,6,6,0,0,0,1.35-.14,4.93,4.93,0,0,0,.95-.3l.26,1.58a2,2,0,0,1-.46.19,6.48,6.48,0,0,1-.69.16l-.82.12A7.18,7.18,0,0,1,56,161.33Z"/><path class="cls-4" d="M62.68,161.09H60.8V150.58h1.88Zm-.95-12.41a1.21,1.21,0,0,1-.86-.33,1.32,1.32,0,0,1,0-1.8,1.27,1.27,0,0,1,1.72,0,1.32,1.32,0,0,1,0,1.8A1.21,1.21,0,0,1,61.73,148.68Z"/><path class="cls-4" d="M73.23,155.84a4.52,4.52,0,0,0-.8-2.82,2.79,2.79,0,0,0-4.35,0,5.38,5.38,0,0,0,0,5.64,2.79,2.79,0,0,0,4.35,0A4.52,4.52,0,0,0,73.23,155.84Zm2,0a6.66,6.66,0,0,1-.36,2.26,5.18,5.18,0,0,1-1,1.74A4.5,4.5,0,0,1,72.24,161a5.18,5.18,0,0,1-4,0,4.5,4.5,0,0,1-1.57-1.12,5.18,5.18,0,0,1-1-1.74,7.19,7.19,0,0,1,0-4.52,5.17,5.17,0,0,1,1-1.75,4.5,4.5,0,0,1,1.57-1.12,5.17,5.17,0,0,1,4,0,4.5,4.5,0,0,1,1.57,1.12,5.16,5.16,0,0,1,1,1.75A6.69,6.69,0,0,1,75.19,155.84Z"/><path class="cls-4" d="M77.84,150.88q.65-.16,1.72-.34a14.79,14.79,0,0,1,2.47-.18,5.33,5.33,0,0,1,2.08.35,3.27,3.27,0,0,1,1.32,1,3.83,3.83,0,0,1,.7,1.53,8.85,8.85,0,0,1,.2,2v5.9H84.45v-5.5a9,9,0,0,0-.13-1.66,2.81,2.81,0,0,0-.43-1.11,1.72,1.72,0,0,0-.81-.62,3.54,3.54,0,0,0-1.25-.19l-.63,0-.62.05-.53.07-.33.06v8.88H77.84Z"/><path class="cls-4" d="M96.08,154.82a3.15,3.15,0,0,0-.64-2.09,2.19,2.19,0,0,0-1.81-.82,2.48,2.48,0,0,0-1.14.25,2.69,2.69,0,0,0-.84.66,3,3,0,0,0-.54.93,4.56,4.56,0,0,0-.25,1.07Zm-7.22,1a6.7,6.7,0,0,1,.4-2.44,5.09,5.09,0,0,1,1.07-1.73,4.36,4.36,0,0,1,1.54-1,4.81,4.81,0,0,1,1.78-.34,4,4,0,0,1,3.26,1.32,6.09,6.09,0,0,1,1.13,4V156a3,3,0,0,1,0,.35h-7.2a3.84,3.84,0,0,0,1,2.49,3.48,3.48,0,0,0,2.59.85A6.89,6.89,0,0,0,96,159.5a6,6,0,0,0,1-.33l.26,1.58a5.62,5.62,0,0,1-1.2.38,8.59,8.59,0,0,1-2,.2,6.19,6.19,0,0,1-2.38-.41,4.43,4.43,0,0,1-1.65-1.14,4.67,4.67,0,0,1-1-1.73A7.28,7.28,0,0,1,88.86,155.85Z"/><path class="cls-4" d="M103.2,159.74a3.7,3.7,0,0,0,1.71-.3,1,1,0,0,0,.56-1,1.29,1.29,0,0,0-.55-1.09,8.72,8.72,0,0,0-1.8-.91q-.61-.24-1.16-.5a4.05,4.05,0,0,1-1-.6,2.61,2.61,0,0,1-.65-.83,2.65,2.65,0,0,1-.24-1.19,2.68,2.68,0,0,1,1-2.21,4.4,4.4,0,0,1,2.81-.82,7.78,7.78,0,0,1,.89.05l.83.12.68.15.46.14-.34,1.62a4.73,4.73,0,0,0-1-.33,6.16,6.16,0,0,0-1.56-.17,2.88,2.88,0,0,0-1.38.31,1,1,0,0,0-.59,1,1.33,1.33,0,0,0,.13.61,1.41,1.41,0,0,0,.4.47,3.32,3.32,0,0,0,.68.39q.4.18,1,.38c.5.19.94.37,1.33.56a4.17,4.17,0,0,1,1,.64,2.45,2.45,0,0,1,.64.88,3.2,3.2,0,0,1,.22,1.26,2.51,2.51,0,0,1-1.08,2.2,5.38,5.38,0,0,1-3.08.75,8.08,8.08,0,0,1-2.18-.23q-.79-.23-1.07-.35l.34-1.62,1,.36A6,6,0,0,0,103.2,159.74Z"/><rect class="cls-4" x="114.56" y="147.08" width="1.96" height="14.01"/><path class="cls-4" d="M119.88,150.88q.65-.16,1.72-.34a14.79,14.79,0,0,1,2.47-.18,5.33,5.33,0,0,1,2.08.35,3.27,3.27,0,0,1,1.32,1,3.82,3.82,0,0,1,.7,1.53,8.85,8.85,0,0,1,.2,2v5.9h-1.88v-5.5a9,9,0,0,0-.13-1.66,2.81,2.81,0,0,0-.43-1.11,1.72,1.72,0,0,0-.81-.62,3.54,3.54,0,0,0-1.25-.19l-.63,0-.62.05-.53.07-.33.06v8.88h-1.88Z"/><path class="cls-4" d="M135.58,145.4a7.29,7.29,0,0,1,1.43.12,5.21,5.21,0,0,1,.84.22l-.34,1.62a3.49,3.49,0,0,0-.69-.23,4.58,4.58,0,0,0-1.09-.11,2.14,2.14,0,0,0-1.84.72,3.2,3.2,0,0,0-.53,1.93v.91h4v1.58h-4v8.94h-1.88V149.63a4.51,4.51,0,0,1,1-3.12A4,4,0,0,1,135.58,145.4Z"/><path class="cls-4" d="M146.6,155.84a4.53,4.53,0,0,0-.8-2.82,2.79,2.79,0,0,0-4.35,0,5.38,5.38,0,0,0,0,5.64,2.79,2.79,0,0,0,4.35,0A4.52,4.52,0,0,0,146.6,155.84Zm2,0a6.65,6.65,0,0,1-.36,2.26,5.17,5.17,0,0,1-1,1.74,4.5,4.5,0,0,1-1.57,1.12,5.18,5.18,0,0,1-4,0,4.49,4.49,0,0,1-1.57-1.12,5.17,5.17,0,0,1-1-1.74,7.19,7.19,0,0,1,0-4.52,5.16,5.16,0,0,1,1-1.75,4.49,4.49,0,0,1,1.57-1.12,5.17,5.17,0,0,1,4,0,4.5,4.5,0,0,1,1.57,1.12,5.16,5.16,0,0,1,1,1.75A6.68,6.68,0,0,1,148.56,155.84Z"/><path class="cls-4" d="M155.09,150.36l.56,0,.62.08.56.1.37.09-.32,1.64a6.25,6.25,0,0,0-.74-.19,6.47,6.47,0,0,0-1.32-.11,4.93,4.93,0,0,0-1,.11l-.68.15v8.83h-1.88V151a12.73,12.73,0,0,1,1.66-.46A10.65,10.65,0,0,1,155.09,150.36Z"/><path class="cls-4" d="M159,150.88q.65-.16,1.71-.34a14.63,14.63,0,0,1,2.46-.18,4.62,4.62,0,0,1,1.7.27,3,3,0,0,1,1.15.8l.45-.28a4.92,4.92,0,0,1,.75-.35,7.83,7.83,0,0,1,1-.3,5,5,0,0,1,1.17-.13,4.76,4.76,0,0,1,2,.35,2.85,2.85,0,0,1,1.2,1,3.89,3.89,0,0,1,.59,1.54,11.54,11.54,0,0,1,.15,1.94v5.9h-1.88v-5.5a12.1,12.1,0,0,0-.09-1.6,3.09,3.09,0,0,0-.34-1.11,1.57,1.57,0,0,0-.69-.66,2.55,2.55,0,0,0-1.12-.21,4.17,4.17,0,0,0-1.57.25,3.08,3.08,0,0,0-.84.46,6.9,6.9,0,0,1,.24,1.15,10.31,10.31,0,0,1,.08,1.31v5.9h-1.88v-5.5a10.7,10.7,0,0,0-.1-1.6,3.21,3.21,0,0,0-.35-1.11,1.58,1.58,0,0,0-.69-.66A2.5,2.5,0,0,0,163,152l-.61,0-.62.05-.54.07-.32.06v8.88H159Z"/><path class="cls-4" d="M182.57,146.59l-2.85,2.77-1-.85,2.59-3.11ZM180,159.74q.67,0,1.18,0a5.19,5.19,0,0,0,.86-.11v-3.13a2.41,2.41,0,0,0-.66-.17,7.31,7.31,0,0,0-1.1-.07,7.22,7.22,0,0,0-.9.06,2.78,2.78,0,0,0-.87.25,1.85,1.85,0,0,0-.66.53,1.37,1.37,0,0,0-.26.88,1.51,1.51,0,0,0,.65,1.4A3.37,3.37,0,0,0,180,159.74Zm-.16-9.42a5.45,5.45,0,0,1,1.91.29,3.1,3.1,0,0,1,1.25.83,3.14,3.14,0,0,1,.68,1.27,6.16,6.16,0,0,1,.2,1.63v6.57l-.68.11-1,.13-1.18.11q-.64,0-1.26.05a6.93,6.93,0,0,1-1.64-.18,3.65,3.65,0,0,1-1.29-.58,2.63,2.63,0,0,1-.85-1,3.65,3.65,0,0,1-.3-1.56,3,3,0,0,1,.35-1.5,2.82,2.82,0,0,1,1-1,4.43,4.43,0,0,1,1.42-.57,7.72,7.72,0,0,1,1.7-.18l.59,0,.58.08.47.09.28.06v-.53a4.23,4.23,0,0,0-.1-.92,2.11,2.11,0,0,0-.36-.81,1.85,1.85,0,0,0-.72-.57,2.82,2.82,0,0,0-1.18-.21,8.93,8.93,0,0,0-1.63.13,5.75,5.75,0,0,0-1,.27l-.22-1.56a5.82,5.82,0,0,1,1.21-.31A10.5,10.5,0,0,1,179.82,150.32Z"/><path class="cls-4" d="M188.74,150.58h4v1.58h-4V157a5.87,5.87,0,0,0,.12,1.3,1.94,1.94,0,0,0,.36.81,1.3,1.3,0,0,0,.61.41,2.67,2.67,0,0,0,.85.12,4,4,0,0,0,1.36-.19l.72-.27.36,1.56a7,7,0,0,1-1,.35,5.64,5.64,0,0,1-1.62.21,4.9,4.9,0,0,1-1.77-.27,2.58,2.58,0,0,1-1.12-.82,3.28,3.28,0,0,1-.6-1.34,8.87,8.87,0,0,1-.17-1.85v-9.38l1.88-.32Z"/><path class="cls-4" d="M197,161.09H195.1V150.58H197Zm-1-12.41a1.21,1.21,0,0,1-.86-.33,1.32,1.32,0,0,1,0-1.8,1.27,1.27,0,0,1,1.72,0,1.32,1.32,0,0,1,0,1.8A1.21,1.21,0,0,1,196,148.68Z"/><path class="cls-4" d="M204.79,161.33a5.72,5.72,0,0,1-2.23-.4,4.5,4.5,0,0,1-1.62-1.13,4.69,4.69,0,0,1-1-1.73,7.15,7.15,0,0,1-.32-2.21,6.69,6.69,0,0,1,.35-2.22,5.25,5.25,0,0,1,1-1.75,4.49,4.49,0,0,1,1.59-1.15,5.13,5.13,0,0,1,2.09-.41,8.33,8.33,0,0,1,1.42.12,6.53,6.53,0,0,1,1.35.38l-.42,1.6a4.48,4.48,0,0,0-1-.32,5.5,5.5,0,0,0-1.18-.12,3,3,0,0,0-2.42,1,4.36,4.36,0,0,0-.84,2.89,5.89,5.89,0,0,0,.19,1.56,3.19,3.19,0,0,0,.61,1.21,2.7,2.7,0,0,0,1.06.78,4.05,4.05,0,0,0,1.58.27,6,6,0,0,0,1.35-.14,4.93,4.93,0,0,0,.95-.3l.26,1.58a2,2,0,0,1-.47.19,6.46,6.46,0,0,1-.69.16l-.82.12A7.18,7.18,0,0,1,204.79,161.33Z"/><path class="cls-4" d="M213.18,159.74c.44,0,.84,0,1.18,0a5.2,5.2,0,0,0,.86-.11v-3.13a2.4,2.4,0,0,0-.66-.17,7.31,7.31,0,0,0-1.1-.07,7.24,7.24,0,0,0-.9.06,2.76,2.76,0,0,0-.87.25,1.85,1.85,0,0,0-.66.53,1.38,1.38,0,0,0-.26.88,1.51,1.51,0,0,0,.65,1.4A3.37,3.37,0,0,0,213.18,159.74Zm-.16-9.42a5.46,5.46,0,0,1,1.91.29,3.1,3.1,0,0,1,1.25.83,3.14,3.14,0,0,1,.68,1.27,6.15,6.15,0,0,1,.2,1.63v6.57l-.68.11-1,.13-1.18.11q-.64,0-1.26.05a6.92,6.92,0,0,1-1.64-.18,3.66,3.66,0,0,1-1.29-.58,2.64,2.64,0,0,1-.85-1,3.64,3.64,0,0,1-.3-1.56,3,3,0,0,1,.35-1.5,2.82,2.82,0,0,1,1-1,4.45,4.45,0,0,1,1.42-.57,7.73,7.73,0,0,1,1.7-.18l.59,0,.58.08.47.09.28.06v-.53a4.27,4.27,0,0,0-.1-.92,2.13,2.13,0,0,0-.36-.81,1.85,1.85,0,0,0-.72-.57,2.81,2.81,0,0,0-1.18-.21,8.94,8.94,0,0,0-1.63.13,5.78,5.78,0,0,0-1,.27l-.22-1.56a5.83,5.83,0,0,1,1.21-.31A10.51,10.51,0,0,1,213,150.31Z"/><path class="cls-4" d="M222.62,159.74a3.7,3.7,0,0,0,1.71-.3,1,1,0,0,0,.56-1,1.29,1.29,0,0,0-.55-1.09,8.71,8.71,0,0,0-1.8-.91q-.61-.24-1.16-.5a4.05,4.05,0,0,1-1-.6,2.61,2.61,0,0,1-.65-.83,2.65,2.65,0,0,1-.24-1.19,2.68,2.68,0,0,1,1-2.21,4.4,4.4,0,0,1,2.81-.82,7.78,7.78,0,0,1,.89.05l.83.12.68.15.46.14-.34,1.62a4.74,4.74,0,0,0-1-.33,6.16,6.16,0,0,0-1.56-.17,2.88,2.88,0,0,0-1.38.31,1,1,0,0,0-.59,1,1.34,1.34,0,0,0,.13.61,1.41,1.41,0,0,0,.4.47,3.32,3.32,0,0,0,.68.39q.4.18,1,.38.75.28,1.33.56a4.17,4.17,0,0,1,1,.64,2.45,2.45,0,0,1,.64.88,3.19,3.19,0,0,1,.22,1.26,2.51,2.51,0,0,1-1.08,2.2,5.38,5.38,0,0,1-3.08.75,8.08,8.08,0,0,1-2.18-.23q-.79-.23-1.07-.35l.34-1.62,1,.36A6,6,0,0,0,222.62,159.74Z"/><path class="cls-6" d="M102.32,5c7.07,8.93,17.84,13.32,26.16,20.75,7.51,6.69,10,16.93,10.67,26.59-3-4-6-8.11-10.25-10.78-7.68-5.26-17.46-8.16-22.83-16.23C102,19.37,102.4,11.87,102.32,5Z"/><path class="cls-5" d="M94.16,49.31C86.35,43.4,84.5,33.16,83.61,24a52.63,52.63,0,0,0,18.6,11.64c10,4,21.4,6.19,29.06,14.35,6.15,6.37,8.3,15.25,9.81,23.69-3-3.66-6.07-7.42-10.17-9.93C119.66,56.52,104.94,57.43,94.16,49.31Z"/><path class="cls-4" d="M75.31,47.26C83.06,52.92,91.66,57.52,101,59.76c9.86,3,20.93,3.48,29.44,9.89,6.17,4.52,9.38,11.66,12.36,18.46-3.09-2.81-6.31-5.64-10.28-7.12-13.6-5.28-29.44-1.19-42.4-8.58C81.13,67.28,77.34,56.88,75.31,47.26Z"/></g></svg>