<svg id="Layer_1" data-name="Layer 1" xmlns="http://www.w3.org/2000/svg" xmlns:xlink="http://www.w3.org/1999/xlink" viewBox="0 0 250 250"><defs><style>.cls-1{fill:none;}.cls-2{fill:#fff;}.cls-3{clip-path:url(#clip-path);}.cls-4{fill:#f0db4f;}.cls-5{fill:#323330;}</style><clipPath id="clip-path"><rect class="cls-1" width="250" height="250"/></clipPath></defs><title>logo-js</title><rect class="cls-2" width="250" height="250"/><g class="cls-3"><rect class="cls-4" x="48" y="48" width="154.28" height="154.28"/><path class="cls-5" d="M131.87,118.91H117.44c0,12.47-.06,24.84-.06,37.31,0,7.93.41,15.21-.88,17.44-2.11,4.38-7.58,3.84-10.08,3-2.54-1.25-3.83-3-5.32-5.53a7.43,7.43,0,0,0-.82-1.32L88.55,177a23.19,23.19,0,0,0,8.51,9.74c5.5,3.3,12.89,4.31,20.62,2.54,5-1.47,9.37-4.5,11.64-9.12,3.29-6.06,2.58-13.39,2.55-21.5.07-13.23,0-26.46,0-39.73Zm57.78,46.58c-1.13-7-5.72-12.95-19.31-18.46-4.72-2.17-10-3.72-11.56-7.3a8,8,0,0,1-.28-4.52c1-4.09,5.9-5.37,9.77-4.19a10.75,10.75,0,0,1,6.28,5.82c6.66-4.31,6.64-4.28,11.29-7.24a28.78,28.78,0,0,0-3.73-5c-4-4.47-9.46-6.78-18.19-6.6l-4.55.59c-4.36,1.1-8.51,3.39-10.94,6.45-7.3,8.29-5.22,22.79,3.67,28.76,8.76,6.57,21.62,8.07,23.26,14.21,1.6,7.52-5.53,10-12.61,9.09-5.22-1.09-8.12-3.74-11.26-8.56l-11.72,6.76c1.41,3.08,2.89,4.47,5.25,7.14,11.17,11.34,39.14,10.78,44.16-6.38A21.18,21.18,0,0,0,189.65,165.48Z"/></g></svg>