<svg id="Layer_1" data-name="Layer 1" xmlns="http://www.w3.org/2000/svg" xmlns:xlink="http://www.w3.org/1999/xlink" viewBox="0 0 250 250"><defs><style>.cls-1{fill:none;}.cls-2{fill:#fff;}.cls-3{clip-path:url(#clip-path);}.cls-4{fill:#fefefe;}.cls-5{fill:#607fb5;}</style><clipPath id="clip-path"><rect class="cls-1" width="250" height="250"/></clipPath></defs><title>logo-php</title><rect class="cls-2" width="250" height="250"/><g class="cls-3"><path class="cls-4" d="M118.05,74.31a184.66,184.66,0,0,0-26.55,2.84A140.17,140.17,0,0,0,56.78,87.94c-8.11,3.89-15.88,8.76-22.06,15.36-4.57,4.87-8.18,10.89-9.21,17.57a26.89,26.89,0,0,0,2.41,15.81c3,6.37,8,11.59,13.5,15.88a92.67,92.67,0,0,0,23.44,12.72c17,6.47,35.26,9.49,53.42,10.19a184.32,184.32,0,0,0,21.71-.4,174.77,174.77,0,0,0,33.78-5.75,115,115,0,0,0,29.46-12.45c6.3-3.91,12.2-8.73,16.54-14.81a30.36,30.36,0,0,0,5.75-14.43,23.57,23.57,0,0,0-.43-8.28,32.61,32.61,0,0,0-7-13.78A62.49,62.49,0,0,0,200.84,91.5a118.26,118.26,0,0,0-28.28-11.42,177.07,177.07,0,0,0-35-5.57A163.49,163.49,0,0,0,118.05,74.31ZM10,64H240.86V185.71H10Z"/><path class="cls-4" d="M115.52,86.18c.08-.33.13-.8.6-.68h11.44q-1.43,7.38-2.84,14.76c4.09,0,8.16,0,12.25,0,3.59.18,7.3.63,10.46,2.43a8.28,8.28,0,0,1,4.22,5.95,19.15,19.15,0,0,1-.35,6.32c-1.66,8.21-3.24,16.41-4.94,24.62-4,0-8,0-12.07,0,1.61-7.88,3.16-15.78,4.74-23.69.3-1.83.63-4-.48-5.6-1.2-1.38-3.16-1.66-4.89-1.81-3.56-.08-7.13,0-10.69,0-2,10.36-4.12,20.73-6.1,31.12-4,0-8,0-11.92,0Q110.26,112.88,115.52,86.18Z"/><path class="cls-4" d="M76.1,108.49c-1.51,7.63-3,15.28-4.49,22.91,4.19-.08,8.41.23,12.57-.28a10.75,10.75,0,0,0,6.3-2.69c3-2.84,4-7.05,4.37-11,.15-2.26-.08-4.87-1.81-6.5-2-1.73-4.69-2.23-7.23-2.41C82.6,108.44,79.33,108.52,76.1,108.49Zm-16,21.28c1.91-9.84,3.76-19.67,5.67-29.49,7.4,0,14.81,0,22.21,0a27.27,27.27,0,0,1,9.54,1.36A14.35,14.35,0,0,1,106,109c1.81,4,1.63,8.53.7,12.72a24.19,24.19,0,0,1-6.93,12.52,16.65,16.65,0,0,1-6.75,4,20,20,0,0,1-7.28,1.33c-5.29,0-10.59-.05-15.88,0Q68.52,147.8,67,156H55.09C56.75,147.21,58.48,138.5,60.14,129.77Z"/><path class="cls-4" d="M169.6,108.49c-1.46,7.63-3,15.26-4.47,22.91,3,0,6,0,9,0,3.24-.13,6.78-.38,9.39-2.53,3.06-2.53,4.27-6.57,4.74-10.39.2-2.38.33-5.12-1.3-7.08-1.86-2-4.77-2.61-7.4-2.84C176.25,108.44,172.91,108.52,169.6,108.49Zm-10.29-8.21c7.85,0,15.73,0,23.59,0,4.54.08,9.33,1.05,12.92,4a13.59,13.59,0,0,1,4.89,8.86,26.39,26.39,0,0,1-1.61,12.55,24,24,0,0,1-7.33,9.94,21,21,0,0,1-6.32,3,23.56,23.56,0,0,1-7.83,1c-4.72,0-9.46,0-14.18,0-1,5.45-1.91,10.92-2.84,16.36h-12Z"/><path class="cls-5" d="M159.31,100.29Q154,128.14,148.62,156h12c1-5.47,1.88-10.92,2.84-16.36h14.18a22.93,22.93,0,0,0,7.83-1,20.69,20.69,0,0,0,6.32-3,24,24,0,0,0,7.33-9.94,26.16,26.16,0,0,0,1.61-12.55,13.53,13.53,0,0,0-4.89-8.86c-3.61-2.94-8.38-3.91-12.92-4ZM60.14,129.77c-1.66,8.73-3.39,17.47-5,26.22H67.09q1.43-8.17,2.84-16.34c5.29-.08,10.59,0,15.88,0a20.54,20.54,0,0,0,7.28-1.33,16.33,16.33,0,0,0,6.75-4,24.37,24.37,0,0,0,6.93-12.52c.9-4.19,1.08-8.73-.7-12.72a14.42,14.42,0,0,0-8.46-7.4,26.7,26.7,0,0,0-9.54-1.36H65.86C63.9,110.1,62,119.93,60.14,129.77Zm55.38-43.59q-5.27,26.73-10.56,53.42c4,0,8,0,11.92,0,2-10.39,4.07-20.75,6.1-31.12,3.56,0,7.13-.05,10.69,0,1.73.15,3.69.43,4.89,1.81,1.1,1.66.78,3.76.48,5.6-1.56,7.9-3.14,15.78-4.74,23.69h12.07c1.68-8.21,3.29-16.41,4.94-24.62a19.12,19.12,0,0,0,.35-6.32,8.28,8.28,0,0,0-4.22-5.95c-3.16-1.81-6.88-2.26-10.46-2.43-4.09-.05-8.16,0-12.25,0,1-4.92,1.88-9.84,2.84-14.76H116.12C115.65,85.38,115.62,85.88,115.52,86.18Zm2.53-11.87a158.4,158.4,0,0,1,19.52.23,177.67,177.67,0,0,1,35,5.57,119.77,119.77,0,0,1,28.31,11.37,63.32,63.32,0,0,1,17.29,14.08,33.05,33.05,0,0,1,7,13.78,23.6,23.6,0,0,1,.43,8.28A30.36,30.36,0,0,1,219.79,142c-4.37,6.07-10.24,10.87-16.54,14.81a115,115,0,0,1-29.46,12.45A175.09,175.09,0,0,1,140,175a184.23,184.23,0,0,1-21.71.4c-18.17-.68-36.39-3.69-53.42-10.19a93.47,93.47,0,0,1-23.44-12.72c-5.5-4.29-10.49-9.51-13.5-15.88a26.86,26.86,0,0,1-2.41-15.81c1-6.67,4.64-12.7,9.21-17.57,6.17-6.6,14-11.47,22.06-15.36A141.57,141.57,0,0,1,91.53,77.12,180.79,180.79,0,0,1,118.05,74.31Z"/><path class="cls-5" d="M76.1,108.49c3.24,0,6.47-.05,9.71.05,2.53.18,5.24.68,7.23,2.41,1.73,1.63,2,4.24,1.81,6.5-.35,3.94-1.41,8.16-4.37,11a10.82,10.82,0,0,1-6.3,2.69c-4.17.5-8.38.23-12.57.28C73.14,123.77,74.59,116.12,76.1,108.49Z"/><path class="cls-5" d="M169.6,108.49c3.31,0,6.65-.08,10,.05,2.63.23,5.55.8,7.4,2.84,1.63,2,1.51,4.69,1.3,7.08-.5,3.81-1.68,7.85-4.74,10.39-2.61,2.16-6.15,2.41-9.39,2.53-3,0-6,0-9,0Q167.38,120,169.6,108.49Z"/></g></svg>