<svg id="Layer_1" data-name="Layer 1" xmlns="http://www.w3.org/2000/svg" xmlns:xlink="http://www.w3.org/1999/xlink" viewBox="0 0 250 250"><defs><style>.cls-1{fill:none;}.cls-2,.cls-6{fill:#fff;}.cls-3{clip-path:url(#clip-path);}.cls-4{fill:#8e714e;}.cls-4,.cls-5,.cls-6,.cls-7,.cls-8,.cls-9{fill-rule:evenodd;}.cls-5{fill:#442d22;}.cls-7{fill:#a6a385;}.cls-8{fill:#499d4a;}.cls-9{fill:#58aa50;}</style><clipPath id="clip-path"><rect class="cls-1" width="250" height="250"/></clipPath></defs><title>logo-mongo</title><rect class="cls-2" width="250" height="250"/><g class="cls-3"><path class="cls-4" d="M175.63,118c.7,0,3.38.11,4.66.11,2.31,0,4-.11,8.33-.11a13.58,13.58,0,0,1,9,2.86,11.9,11.9,0,0,1,4.07,9.4c0,5.54-2.53,8.74-5.07,10.57s-5.84,3-10.54,3c-2.5,0-6.79-.07-10.35-.11h0c-.18-.33.29-1.62.59-1.65a5.85,5.85,0,0,0,1.69-.33c.77-.29.92-.7,1-2.06.11-2.53.07-5.58.07-9,0-2.46,0-7.27,0-8.81-.11-1.28-.66-1.62-1.76-1.84-.55-.11-1.28-.26-2.31-.37-.15-.26.51-1.4.7-1.62ZM184,140.78a7.4,7.4,0,0,0,4.15,1,8.13,8.13,0,0,0,5.87-2.09c1.95-1.76,3.3-4.48,3.3-8.81,0-4.15-1.58-7.53-4.81-9.51a13,13,0,0,0-6.9-1.62,5.5,5.5,0,0,0-2.06.26,1.08,1.08,0,0,0-.37.59c-.07.73-.07,6.39-.07,9.69s0,8.19.07,8.74a2.28,2.28,0,0,0,.81,1.76ZM205.14,118c.37,0,1.47.11,4.29.11s4.81-.07,7.42-.07c3.19,0,7.6,1.14,7.6,5.91a5.76,5.76,0,0,1-3.82,5.14c-.11,0-.11.11,0,.15,3.08.77,5.8,2.68,5.8,6.28s-2.2,5.76-5.4,7.16a17.56,17.56,0,0,1-6.83,1.14c-1.87,0-6.9-.22-9.69-.15-.29-.11.26-1.43.51-1.65a6.85,6.85,0,0,0,1.87-.29c1-.26,1.1-.55,1.25-2.06.07-1.28.07-5.84.07-9.07,0-4.44,0-7.45,0-8.92,0-1.14-.44-1.51-1.25-1.73-.62-.11-1.65-.26-2.5-.37-.18-.18.44-1.43.66-1.58Zm17,18.43c0-3.63-2.68-5.65-7.53-5.65-.22,0-1.76,0-2.13,0-.11,0-.26.11-.26.22,0,2.61,0,6.75.07,8.37a2.77,2.77,0,0,0,1.21,2,8.4,8.4,0,0,0,3.19.44C219.57,141.78,222.1,140.16,222.1,136.38ZM212.63,120c-.18,0-.37.44-.37.66,0,1.47-.07,5.36-.07,8a.27.27,0,0,0,.22.22c.55,0,1.87.07,3,.07a7.86,7.86,0,0,0,3-.44,3.9,3.9,0,0,0,1.95-3.67c0-3.56-2.5-4.92-6.2-4.92a5.89,5.89,0,0,0-1.54.07Z"/><path class="cls-5" d="M56.25,143.72a1.57,1.57,0,0,1-.11-.84,1.24,1.24,0,0,1,.11-.55,13.54,13.54,0,0,0,1.62-.33c.73-.18,1-.59,1.06-1.5.11-2.2.11-6.39.07-9.29v-.07a1.11,1.11,0,0,0-.4-1,8.29,8.29,0,0,0-2.2-1c-.33-.11-.55-.29-.51-.51s.22-.48.7-.55a26.86,26.86,0,0,0,5.62-1.43.91.91,0,0,1,.18.59l0,.4c0,.4-.07.88-.07,1.36a.28.28,0,0,0,.29.26.52.52,0,0,0,.22-.07,10.35,10.35,0,0,1,5.58-2.5,4.75,4.75,0,0,1,4.26,2.61.28.28,0,0,0,.26.15.26.26,0,0,0,.22-.11c2.17-1.65,4.33-2.64,5.76-2.64,3.41,0,5.43,2.53,5.43,6.83,0,1.21,0,2.79,0,4.22s0,2.46,0,3.3a1.15,1.15,0,0,0,.66.88,7.84,7.84,0,0,0,2.13.51h0a2.94,2.94,0,0,1-.22,1.4,9,9,0,0,1-.92,0q-1.39-.07-2.79-.07c-2.28,0-3.45,0-4.59.11a3.58,3.58,0,0,1,0-1.4,11.4,11.4,0,0,0,1.4-.33c.73-.22.92-.55,1-1.51,0-.7.15-6.64-.07-8.08a3.62,3.62,0,0,0-3.74-3.19,6.51,6.51,0,0,0-3.74,1.43.65.65,0,0,0-.15.37v0a16.91,16.91,0,0,1,.15,3v2.39c0,1.65,0,3.19,0,4.37a1.08,1.08,0,0,0,.88,1.14l.55.11,1.17.26a2,2,0,0,1,0,1,.7.7,0,0,1-.15.37c-1.25,0-2.53-.07-4.4-.07-.55,0-1.51,0-2.31,0s-1.28,0-1.65,0a1.94,1.94,0,0,1-.11-.73,1.14,1.14,0,0,1,.15-.66,2.48,2.48,0,0,1,.51-.07l1.17-.22c.62-.18.84-.51.88-1.32a63.71,63.71,0,0,0,0-8.41c-.44-2.13-1.65-3.19-3.6-3.19a6.74,6.74,0,0,0-3.74,1.43,1.19,1.19,0,0,0-.33.84v2.17c0,2.64,0,5.95,0,7.38a1.14,1.14,0,0,0,1,1.14,7.68,7.68,0,0,0,.84.15l.66.11a3.08,3.08,0,0,1-.11,1.4c-.37,0-.81,0-1.32,0-.77,0-1.76-.07-2.86-.07-1.28,0-2.2,0-2.94.07a8.87,8.87,0,0,0-1.36-.07Zm42,.37c-6.24,0-8.48-4.59-8.48-8.88a8,8,0,0,1,3.63-7A11,11,0,0,1,99,126.58c4.77,0,8.11,3.41,8.11,8.33a8.52,8.52,0,0,1-3.85,7.6,9.94,9.94,0,0,1-5,1.58Zm-.66-15.71a3.41,3.41,0,0,0-2,.55c-1.43.88-2.17,2.64-2.17,5.21,0,4.81,2.42,8.19,5.87,8.19a3.74,3.74,0,0,0,2.53-.88c1.06-.88,1.62-2.64,1.62-5.1C103.42,131.57,101.07,128.38,97.55,128.38ZM163,144.09c-6.24,0-8.48-4.59-8.48-8.88a8,8,0,0,1,3.63-7,11,11,0,0,1,5.62-1.65c4.77,0,8.11,3.41,8.11,8.33a8.52,8.52,0,0,1-3.85,7.6,10.18,10.18,0,0,1-5,1.58Zm-.66-15.71a3.41,3.41,0,0,0-2,.55c-1.43.88-2.17,2.64-2.17,5.21,0,4.81,2.42,8.19,5.87,8.19a3.74,3.74,0,0,0,2.53-.88c1.06-.88,1.62-2.64,1.62-5.1,0-4.77-2.39-8-5.87-8ZM141.38,154a8.12,8.12,0,0,1-5.25-1.54,4.84,4.84,0,0,1-1.95-3.63,2.81,2.81,0,0,1,.73-1.84,19.47,19.47,0,0,1,3.38-2.72c.07,0,.11-.07.11-.15a.24.24,0,0,0-.15-.18,3.49,3.49,0,0,1-2.39-2.31v-.07c0-.22-.11-.44.22-.66s.62-.4,1-.66a15.08,15.08,0,0,0,1.69-1.1.27.27,0,0,0,.07-.22.24.24,0,0,0-.15-.18c-2.57-.84-3.85-2.75-3.85-5.62a5.57,5.57,0,0,1,2.35-4.63,10.79,10.79,0,0,1,5.29-1.8h.11a11.26,11.26,0,0,1,4,.88,6.79,6.79,0,0,0,2.39.37,3.18,3.18,0,0,0,2.57-1,2,2,0,0,1,.15.73,2.77,2.77,0,0,1-.48,1.69,2.08,2.08,0,0,1-1.62.7h-.18a8.18,8.18,0,0,1-1-.15l-.15.07c0,.07,0,.15,0,.26l0,.07a13.55,13.55,0,0,1,.22,1.58,6,6,0,0,1-2.5,5.32,8.45,8.45,0,0,1-4.29,1.65,4.62,4.62,0,0,0-.51,0c-.18,0-.44,0-.48,0h0c-.29.07-1,.44-1,1.06s.33,1.21,1.91,1.32c.33,0,.66,0,1,.07a32.18,32.18,0,0,1,5.91.73,4.11,4.11,0,0,1,2.75,3.93c0,2.72-1.95,5.25-5.18,6.83a11.81,11.81,0,0,1-4.88,1.06Zm-.26-9.54a3.16,3.16,0,0,0-1.58.4c-1.54,1-2.24,1.95-2.24,3.08a3.25,3.25,0,0,0,1.28,2.64,6.52,6.52,0,0,0,4.4,1.36c3.74,0,5.4-2,5.4-4a2.81,2.81,0,0,0-2.13-2.83,14.83,14.83,0,0,0-5.14-.66Zm.26-16.22c-1.95,0-3.16,1.5-3.16,3.85s1.06,5.14,4.07,5.14a2.84,2.84,0,0,0,1.91-.73,4.86,4.86,0,0,0,1.18-3.38c0-3-1.51-4.88-4-4.88Zm-10.17,14a7.38,7.38,0,0,1-2.39-.62,1.12,1.12,0,0,1-.29-.59c-.07-1.28-.07-5-.07-7.41a8.65,8.65,0,0,0-1.17-4.92,5,5,0,0,0-4.26-2.2c-1.62,0-3.78,1.1-5.58,2.64,0,0-.33.29-.29-.11s.07-1.21.11-1.76a1,1,0,0,0-.26-.77,24.5,24.5,0,0,1-5.69,1.47c-.88.18-1.1,1-.18,1.32h0a8.15,8.15,0,0,1,2.17,1,1.14,1.14,0,0,1,.33,1c0,2.75,0,7-.07,9.29,0,.92-.29,1.25-1,1.39l.07,0a14.5,14.5,0,0,1-1.54.29,2.15,2.15,0,0,0,0,1.65c.4,0,2.53-.11,4.3-.11,2.42,0,3.67.11,4.29.11a2.39,2.39,0,0,0,.18-1.65,6.8,6.8,0,0,1-1.69-.26c-.66-.15-.84-.48-.88-1.25-.07-1.95-.07-6.06-.07-8.85a1.77,1.77,0,0,1,.44-1.36,5.55,5.55,0,0,1,3.41-1.25,3.8,3.8,0,0,1,2.53.84,3.61,3.61,0,0,1,1.17,2.31c.18,1.58.11,4.7.11,7.42,0,1.47-.11,1.84-.66,2a7,7,0,0,1-1.69.33,2.15,2.15,0,0,0,0,1.65c1.06,0,2.31-.11,4.15-.11,2.28,0,3.74.11,4.33.11a2.56,2.56,0,0,0,.11-1.58Z"/><path class="cls-6" d="M36.94,152.53l-1.5-.51s.18-7.67-2.57-8.22c-1.84-2.13.29-90.3,6.9-.29,0,0-2.28,1.14-2.68,3.08a28.31,28.31,0,0,0-.15,5.95Z"/><path class="cls-7" d="M36.94,152.53l-1.5-.51s.18-7.67-2.57-8.22c-1.84-2.13.29-90.3,6.9-.29,0,0-2.28,1.14-2.68,3.08a28.31,28.31,0,0,0-.15,5.95Z"/><path class="cls-6" d="M37.75,145.12s13.18-8.66,10.09-26.69c-3-13.1-10-17.4-10.76-19.05a18.53,18.53,0,0,1-1.65-3.23L36,132.6s-1.14,11.16,1.76,12.52"/><path class="cls-8" d="M37.75,145.12s13.18-8.66,10.09-26.69c-3-13.1-10-17.4-10.76-19.05a18.53,18.53,0,0,1-1.65-3.23L36,132.6s-1.14,11.16,1.76,12.52"/><path class="cls-6" d="M34.67,145.59S22.3,137.15,23,122.28s9.43-22.17,11.12-23.49A3.42,3.42,0,0,0,35.37,96c.77,1.65.62,24.71.73,27.42C36.43,133.88,35.51,143.61,34.67,145.59Z"/><path class="cls-9" d="M34.67,145.59S22.3,137.15,23,122.28s9.43-22.17,11.12-23.49A3.42,3.42,0,0,0,35.37,96c.77,1.65.62,24.71.73,27.42C36.43,133.88,35.51,143.61,34.67,145.59Z"/></g></svg>